<?xml version="1.0" encoding="UTF-8" standalone="no"?>
<!-- Created with Inkscape (http://www.inkscape.org/) -->

<svg
   xmlns:dc="http://purl.org/dc/elements/1.1/"
   xmlns:cc="http://creativecommons.org/ns#"
   xmlns:rdf="http://www.w3.org/1999/02/22-rdf-syntax-ns#"
   xmlns:svg="http://www.w3.org/2000/svg"
   xmlns="http://www.w3.org/2000/svg"
   xmlns:sodipodi="http://sodipodi.sourceforge.net/DTD/sodipodi-0.dtd"
   xmlns:inkscape="http://www.inkscape.org/namespaces/inkscape"
   id="svg3004"
   version="1.1"
   inkscape:version="0.48.3.1 r9886"
   width="675"
   height="887.5"
   xml:space="preserve"
   sodipodi:docname="voice_fingerprints.eps"
   inkscape:export-filename="/home/vik/vikparuchuri/vikparuchuri.com/source/images/simpsons-scripts/voice_fingerprints.png"
   inkscape:export-xdpi="93.333336"
   inkscape:export-ydpi="93.333336"><metadata
     id="metadata3010"><rdf:RDF><cc:Work
         rdf:about=""><dc:format>image/svg+xml</dc:format><dc:type
           rdf:resource="http://purl.org/dc/dcmitype/StillImage" /><dc:title></dc:title></cc:Work></rdf:RDF></metadata><defs
     id="defs3008"><clipPath
       clipPathUnits="userSpaceOnUse"
       id="clipPath3024"><path
         d="m 220.199,6943.83 4581.911,0 0,-6713.631 -4581.911,0 0,6713.631 z"
         id="path3026"
         inkscape:connector-curvature="0" /></clipPath></defs><sodipodi:namedview
     pagecolor="#ffffff"
     bordercolor="#666666"
     borderopacity="1"
     objecttolerance="10"
     gridtolerance="10"
     guidetolerance="10"
     inkscape:pageopacity="0"
     inkscape:pageshadow="2"
     inkscape:window-width="1855"
     inkscape:window-height="1176"
     id="namedview3006"
     showgrid="false"
     inkscape:zoom="1.5886996"
     inkscape:cx="268.99332"
     inkscape:cy="809.82755"
     inkscape:window-x="65"
     inkscape:window-y="24"
     inkscape:window-maximized="1"
     inkscape:current-layer="layer1" /><g
     inkscape:groupmode="layer"
     id="layer1"
     inkscape:label="background"><rect
       style="fill:#ffffff;fill-opacity:1;fill-rule:nonzero;stroke:none"
       id="rect4306"
       width="734.56299"
       height="945.42725"
       x="-26.436716"
       y="-22.048899" /></g><g
     id="g3012"
     inkscape:groupmode="layer"
     inkscape:label="ink_ext_XXXXXX"
     transform="matrix(1.25,0,0,-1.25,0,887.5)"><path
       inkscape:connector-curvature="0"
       id="path3028"
       style="fill:#e5e5e5;fill-opacity:1;fill-rule:nonzero;stroke:none"
       d="m 41.864158,44.588296 456.271682,0 0,614.604404 -456.271683,0 0,-614.604404 z" /><path
       inkscape:connector-curvature="0"
       id="path3030"
       style="fill:#f4766d;fill-opacity:1;fill-rule:nonzero;stroke:none"
       d="m 351.60333,227.26924 c 0,3.99415 -3.52417,7.23395 -7.8689,7.23395 -4.34472,0 -7.86491,-3.2398 -7.86491,-7.23395 0,-3.99506 3.52019,-7.23211 7.86491,-7.23211 4.34473,0 7.8689,3.23705 7.8689,7.23211" /><path
       inkscape:connector-curvature="0"
       id="path3032"
       style="fill:#e8823e;fill-opacity:1;fill-rule:nonzero;stroke:none"
       d="m 212.71557,319.66547 c 0,4.53792 -3.99918,8.2144 -8.93143,8.2144 -4.93225,0 -8.93143,-3.67648 -8.93143,-8.2144 0,-4.53518 3.99918,-8.20982 8.93143,-8.20982 4.93225,0 8.93143,3.67464 8.93143,8.20982" /><path
       inkscape:connector-curvature="0"
       id="path3034"
       style="fill:#d88d00;fill-opacity:1;fill-rule:nonzero;stroke:none"
       d="m 164.44562,629.88112 c 0,10.39868 -9.17242,18.83096 -20.48384,18.83096 -11.31142,0 -20.48383,-8.43228 -20.48383,-18.83096 0,-10.3996 9.17241,-18.83189 20.48383,-18.83189 11.31142,0 20.48384,8.43229 20.48384,18.83189" /><path
       inkscape:connector-curvature="0"
       id="path3036"
       style="fill:#c69700;fill-opacity:1;fill-rule:nonzero;stroke:none"
       d="m 412.79593,282.8183 c 0,7.24219 -6.38315,13.11027 -14.26102,13.11027 -7.87288,0 -14.26001,-5.86808 -14.26001,-13.11027 0,-7.23853 6.38713,-13.10935 14.26001,-13.10935 7.87787,0 14.26102,5.87082 14.26102,13.10935" /><path
       inkscape:connector-curvature="0"
       id="path3038"
       style="fill:#b0a000;fill-opacity:1;fill-rule:nonzero;stroke:none"
       d="m 223.78998,422.65446 c 0,7.73928 -6.82329,14.0065 -15.2369,14.0065 -8.41361,0 -15.23691,-6.26722 -15.23691,-14.0065 0,-7.73562 6.8233,-14.00284 15.23691,-14.00284 8.41361,0 15.2369,6.26722 15.2369,14.00284" /><path
       inkscape:connector-curvature="0"
       id="path3040"
       style="fill:#95a800;fill-opacity:1;fill-rule:nonzero;stroke:none"
       d="m 368.57893,170.42756 c 0,3.99415 -3.5202,7.23394 -7.86492,7.23394 -4.34472,0 -7.86591,-3.23979 -7.86591,-7.23394 0,-3.99322 3.52119,-7.23029 7.86591,-7.23029 4.34472,0 7.86492,3.23707 7.86492,7.23029" /><path
       inkscape:connector-curvature="0"
       id="path3042"
       style="fill:#71af00;fill-opacity:1;fill-rule:nonzero;stroke:none"
       d="m 268.92014,392.46266 c 0,10.74931 -9.47912,19.46446 -21.17194,19.46446 -11.69381,0 -21.16895,-8.71515 -21.16895,-19.46446 0,-10.75021 9.47514,-19.46171 21.16895,-19.46171 11.69282,0 21.17194,8.7115 21.17194,19.46171" /><path
       inkscape:connector-curvature="0"
       id="path3044"
       style="fill:#00bb34;fill-opacity:1;fill-rule:nonzero;stroke:none"
       d="m 268.37145,220.16621 c 0,3.56296 -3.14278,6.45123 -7.02047,6.45123 -3.8747,0 -7.01748,-2.88827 -7.01748,-6.45123 0,-3.5648 3.14278,-6.4549 7.01748,-6.4549 3.87769,0 7.02047,2.8901 7.02047,6.4549" /><path
       inkscape:connector-curvature="0"
       id="path3046"
       style="fill:#00bf65;fill-opacity:1;fill-rule:nonzero;stroke:none"
       d="m 165.55395,556.6802 c 0,3.56114 -3.14278,6.4549 -7.02046,6.4549 -3.87471,0 -7.01749,-2.89376 -7.01749,-6.4549 0,-3.56661 3.14278,-6.45489 7.01749,-6.45489 3.87768,0 7.02046,2.88828 7.02046,6.45489" /><path
       inkscape:connector-curvature="0"
       id="path3048"
       style="fill:#00c18a;fill-opacity:1;fill-rule:nonzero;stroke:none"
       d="m 76.320415,619.75249 c 0,6.96755 -6.14216,12.61684 -13.723569,12.61684 -7.577824,0 -13.719987,-5.64929 -13.719987,-12.61684 0,-6.96572 6.142163,-12.61501 13.719987,-12.61501 7.581409,0 13.723569,5.64929 13.723569,12.61501" /><path
       inkscape:connector-curvature="0"
       id="path3050"
       style="fill:#14c2a9;fill-opacity:1;fill-rule:nonzero;stroke:none"
       d="m 126.07204,582.93462 c 0,8.85064 -7.80697,16.02692 -17.43875,16.02692 -9.627397,0 -17.434455,-7.17628 -17.434455,-16.02692 0,-8.8534 7.807058,-16.03058 17.434455,-16.03058 9.63178,0 17.43875,7.17718 17.43875,16.03058" /><path
       inkscape:connector-curvature="0"
       id="path3052"
       style="fill:#2bbfc4;fill-opacity:1;fill-rule:nonzero;stroke:none"
       d="m 288.73579,267.41206 c 0,9.89885 -8.72928,17.92375 -19.49599,17.92375 -10.76771,0 -19.49998,-8.0249 -19.49998,-17.92375 0,-9.90159 8.73227,-17.92649 19.49998,-17.92649 10.76671,0 19.49599,8.0249 19.49599,17.92649" /><path
       inkscape:connector-curvature="0"
       id="path3054"
       style="fill:#3abbdc;fill-opacity:1;fill-rule:nonzero;stroke:none"
       d="m 278.83942,328.91342 c 0,5.24283 -4.62455,9.49421 -10.32756,9.49421 -5.70202,0 -10.32756,-4.25138 -10.32756,-9.49421 0,-5.24282 4.62554,-9.49513 10.32756,-9.49513 5.70301,0 10.32756,4.25231 10.32756,9.49513" /><path
       inkscape:connector-curvature="0"
       id="path3056"
       style="fill:#46b3f0;fill-opacity:1;fill-rule:nonzero;stroke:none"
       d="m 444.27252,72.520832 c 0,9.27258 -8.17661,16.789402 -18.26318,16.789402 -10.08657,0 -18.26317,-7.516822 -18.26317,-16.789402 0,-9.272945 8.1766,-16.789677 18.26317,-16.789677 10.08657,0 18.26318,7.516732 18.26318,16.789677" /><path
       inkscape:connector-curvature="0"
       id="path3058"
       style="fill:#4fa7ff;fill-opacity:1;fill-rule:nonzero;stroke:none"
       d="m 118.42107,558.44508 c 0,3.56662 -3.14308,6.45581 -7.01778,6.45581 -3.87749,0 -7.02127,-2.88919 -7.02127,-6.45581 0,-3.56022 3.14378,-6.45398 7.02127,-6.45398 3.8747,0 7.01778,2.89376 7.01778,6.45398" /><path
       inkscape:connector-curvature="0"
       id="path3060"
       style="fill:#7b9aff;fill-opacity:1;fill-rule:nonzero;stroke:none"
       d="m 272.36266,432.54964 c 0,9.2214 -8.1298,16.69887 -18.1616,16.69887 -10.0318,0 -18.1616,-7.47747 -18.1616,-16.69887 0,-9.21866 8.1298,-16.69612 18.1616,-16.69612 10.0318,0 18.1616,7.47746 18.1616,16.69612" /><path
       inkscape:connector-curvature="0"
       id="path3062"
       style="fill:#f95fe4;fill-opacity:1;fill-rule:nonzero;stroke:none"
       d="m 346.07324,256.62491 c 0,7.11219 -6.27461,12.87957 -14.01106,12.87957 -7.73746,0 -14.01206,-5.76738 -14.01206,-12.87957 0,-7.11311 6.2746,-12.88232 14.01206,-12.88232 7.73645,0 14.01106,5.76921 14.01106,12.88232" /><path
       inkscape:connector-curvature="0"
       id="path3064"
       style="fill:#ff5dcd;fill-opacity:1;fill-rule:nonzero;stroke:none"
       d="m 486.32662,128.29911 c 0,4.53426 -3.99918,8.21075 -8.93143,8.21075 -4.93624,0 -8.93542,-3.67649 -8.93542,-8.21075 0,-4.53517 3.99918,-8.20982 8.93542,-8.20982 4.93225,0 8.93143,3.67465 8.93143,8.20982" /><path
       inkscape:connector-curvature="0"
       id="path3066"
       style="fill:#ff62b1;fill-opacity:1;fill-rule:nonzero;stroke:none"
       d="m 348.24645,337.53795 c 0,7.99927 -7.05631,14.48254 -15.75373,14.48254 -8.7014,0 -15.75373,-6.48327 -15.75373,-14.48254 0,-7.99835 7.05233,-14.48162 15.75373,-14.48162 8.69742,0 15.75373,6.48327 15.75373,14.48162" /><g
       transform="matrix(0.9958111,0,0,0.9409594,1.0071166,-0.73927322)"
       id="g3214" /><flowRoot
       xml:space="preserve"
       id="flowRoot3264"
       style="font-size:40px;font-style:normal;font-variant:normal;font-weight:bold;font-stretch:normal;line-height:125%;letter-spacing:0px;word-spacing:0px;fill:#000000;fill-opacity:1;stroke:none;font-family:Simpsonfont;-inkscape-font-specification:Simpsonfont Bold"
       transform="matrix(0.8,0,0,-0.77831853,-0.0033252,675.4773)"><flowRegion
         id="flowRegion3266"><rect
           id="rect3268"
           width="154.88966"
           height="48.959377"
           x="216.31143"
           y="40.947842" /></flowRegion><flowPara
         id="flowPara3270"
         style="font-size:20px">Bart</flowPara></flowRoot><flowRoot
       xml:space="preserve"
       id="flowRoot3272"
       style="font-size:40px;font-style:normal;font-variant:normal;font-weight:bold;font-stretch:normal;line-height:125%;letter-spacing:0px;word-spacing:0px;fill:#000000;fill-opacity:1;stroke:none;font-family:Simpsonfont;-inkscape-font-specification:Simpsonfont Bold"
       transform="matrix(0.8,0,0,-0.8,30.007624,711.00711)"><flowRegion
         id="flowRegion3274"><rect
           id="rect3276"
           width="701.83185"
           height="45.320084"
           x="35.248955"
           y="8.1644897" /></flowRegion><flowPara
         id="flowPara3278">The voices of the Simpsons</flowPara></flowRoot><flowRoot
       transform="matrix(0.8,0,0,-0.77831853,-114.31065,624.52674)"
       style="font-size:40px;font-style:normal;font-variant:normal;font-weight:bold;font-stretch:normal;line-height:125%;letter-spacing:0px;word-spacing:0px;fill:#000000;fill-opacity:1;stroke:none;font-family:Simpsonfont;-inkscape-font-specification:Simpsonfont Bold"
       id="flowRoot3280"
       xml:space="preserve"><flowRegion
         id="flowRegion3282"><rect
           y="40.947842"
           x="216.31143"
           height="48.959377"
           width="154.88966"
           id="rect3284" /></flowRegion><flowPara
         style="font-size:20px"
         id="flowPara3286">Lisa</flowPara></flowRoot><flowRoot
       xml:space="preserve"
       id="flowRoot3288"
       style="font-size:40px;font-style:normal;font-variant:normal;font-weight:bold;font-stretch:normal;line-height:125%;letter-spacing:0px;word-spacing:0px;fill:#000000;fill-opacity:1;stroke:none;font-family:Simpsonfont;-inkscape-font-specification:Simpsonfont Bold"
       transform="matrix(0.8,0,0,-0.77831853,-51.869644,466.28608)"><flowRegion
         id="flowRegion3290"><rect
           id="rect3292"
           width="154.88966"
           height="48.959377"
           x="216.31143"
           y="40.947842" /></flowRegion><flowPara
         id="flowPara3294"
         style="font-size:20px">Dr. Nick</flowPara></flowRoot><flowRoot
       transform="matrix(0.8,0,0,-0.77831853,103.72931,478.04391)"
       style="font-size:40px;font-style:normal;font-variant:normal;font-weight:bold;font-stretch:normal;line-height:125%;letter-spacing:0px;word-spacing:0px;fill:#000000;fill-opacity:1;stroke:none;font-family:Simpsonfont;-inkscape-font-specification:Simpsonfont Bold"
       id="flowRoot3296"
       xml:space="preserve"><flowRegion
         id="flowRegion3298"><rect
           y="40.947842"
           x="216.31143"
           height="48.959377"
           width="154.88966"
           id="rect3300" /></flowRegion><flowPara
         style="font-size:20px"
         id="flowPara3302">Ned</flowPara></flowRoot><flowRoot
       xml:space="preserve"
       id="flowRoot3304"
       style="font-size:40px;font-style:normal;font-variant:normal;font-weight:bold;font-stretch:normal;line-height:125%;letter-spacing:0px;word-spacing:0px;fill:#000000;fill-opacity:1;stroke:none;font-family:Simpsonfont;-inkscape-font-specification:Simpsonfont Bold"
       transform="matrix(0.8,0,0,-0.77831853,100.20441,433.95209)"><flowRegion
         id="flowRegion3306"><rect
           id="rect3308"
           width="154.88966"
           height="48.959377"
           x="216.31143"
           y="40.947842" /></flowRegion><flowPara
         id="flowPara3310"
         style="font-size:20px">Homer</flowPara></flowRoot><flowRoot
       transform="matrix(0.8,0,0,-0.77831853,181.78056,381.53181)"
       style="font-size:40px;font-style:normal;font-variant:normal;font-weight:bold;font-stretch:normal;line-height:125%;letter-spacing:0px;word-spacing:0px;fill:#000000;fill-opacity:1;stroke:none;font-family:Simpsonfont;-inkscape-font-specification:Simpsonfont Bold"
       id="flowRoot3312"
       xml:space="preserve"><flowRegion
         id="flowRegion3314"><rect
           y="40.947842"
           x="216.31143"
           height="48.959377"
           width="154.88966"
           id="rect3316" /></flowRegion><flowPara
         style="font-size:20px"
         id="flowPara3318">Rev. Lovejoy</flowPara></flowRoot><flowRoot
       transform="matrix(0.8,0,0,-0.77831853,-55.898096,361.44553)"
       style="font-size:40px;font-style:normal;font-variant:normal;font-weight:bold;font-stretch:normal;line-height:125%;letter-spacing:0px;word-spacing:0px;fill:#000000;fill-opacity:1;stroke:none;font-family:Simpsonfont;-inkscape-font-specification:Simpsonfont Bold"
       id="flowRoot3320"
       xml:space="preserve"><flowRegion
         id="flowRegion3322"><rect
           y="40.947842"
           x="216.31143"
           height="48.959377"
           width="154.88966"
           id="rect3324" /></flowRegion><flowPara
         style="font-size:20px"
         id="flowPara3326">Milhouse</flowPara></flowRoot><flowRoot
       xml:space="preserve"
       id="flowRoot3375"
       style="font-size:40px;font-style:normal;font-variant:normal;font-weight:bold;font-stretch:normal;line-height:125%;letter-spacing:0px;word-spacing:0px;fill:#000000;fill-opacity:1;stroke:none;font-family:Simpsonfont;-inkscape-font-specification:Simpsonfont Bold"
       transform="matrix(0.8,0,0,-0.77831853,10.067803,306.5757)"><flowRegion
         id="flowRegion3377"><rect
           id="rect3379"
           width="154.88966"
           height="48.959377"
           x="216.31143"
           y="40.947842" /></flowRegion><flowPara
         id="flowPara3381"
         style="font-size:20px">Marge</flowPara></flowRoot><flowRoot
       transform="matrix(0.8,0,0,-0.77831853,176.745,293.83806)"
       style="font-size:40px;font-style:normal;font-variant:normal;font-weight:bold;font-stretch:normal;line-height:125%;letter-spacing:0px;word-spacing:0px;fill:#000000;fill-opacity:1;stroke:none;font-family:Simpsonfont;-inkscape-font-specification:Simpsonfont Bold"
       id="flowRoot3403"
       xml:space="preserve"><flowRegion
         id="flowRegion3405"><rect
           y="40.947842"
           x="216.31143"
           height="48.959377"
           width="154.88966"
           id="rect3407" /></flowRegion><flowPara
         style="font-size:20px"
         id="flowPara3409">Skinner</flowPara></flowRoot><flowRoot
       xml:space="preserve"
       id="flowRoot3411"
       style="font-size:40px;font-style:normal;font-variant:normal;font-weight:bold;font-stretch:normal;line-height:125%;letter-spacing:0px;word-spacing:0px;fill:#000000;fill-opacity:1;stroke:none;font-family:Simpsonfont;-inkscape-font-specification:Simpsonfont Bold"
       transform="matrix(0.8,0,0,-0.77831853,241.70379,325.19224)"><flowRegion
         id="flowRegion3413"><rect
           id="rect3415"
           width="154.88966"
           height="48.959377"
           x="216.31143"
           y="40.947842" /></flowRegion><flowPara
         id="flowPara3417"
         style="font-size:20px">Burns</flowPara></flowRoot><flowRoot
       transform="matrix(0.8,0,0,-0.77831853,192.85881,113.06157)"
       style="font-size:40px;font-style:normal;font-variant:normal;font-weight:bold;font-stretch:normal;line-height:125%;letter-spacing:0px;word-spacing:0px;fill:#000000;fill-opacity:1;stroke:none;font-family:Simpsonfont;-inkscape-font-specification:Simpsonfont Bold"
       id="flowRoot3419"
       xml:space="preserve"><flowRegion
         id="flowRegion3421"><rect
           y="40.947842"
           x="216.31143"
           height="48.959377"
           width="154.88966"
           id="rect3423" /></flowRegion><flowPara
         style="font-size:20px"
         id="flowPara3425">Moe</flowPara></flowRoot><path
       style="fill:#ffffff;fill-opacity:1;fill-rule:nonzero;stroke:none"
       d="m 41.966884,303.89127 0,258.91699 31.987441,0 31.987445,0 -0.72586,-1.10229 c -2.31838,-3.52076 0.0197,-8.70351 4.35343,-9.65 4.38383,-0.95745 8.33957,1.51588 8.80152,5.50316 0.1696,1.46396 -0.007,2.73409 -0.51992,3.7339 l -0.77696,1.51523 19.16447,0 19.16445,0 -1.33685,-1.02307 c -2.83662,-2.17081 -3.55736,-5.39975 -1.82302,-8.1672 2.92839,-4.67277 9.66596,-4.67277 12.59435,0 1.73434,2.76745 1.0136,5.99639 -1.82301,8.1672 l -1.33687,1.02307 168.004,0 168.004,0 0,-258.91699 0,-258.916996 -227.85931,0 -227.859306,0 0,258.916996 z M 434.29901,57.354964 c 3.59579,1.711592 6.76629,4.791702 8.43597,8.195492 1.12357,2.290474 1.32175,3.355588 1.32175,7.103682 0,5.270858 -1.13664,8.018735 -4.76225,11.512872 -10.91054,10.514904 -30.25618,4.253534 -31.60605,-10.22955 -0.44321,-4.755355 1.72361,-10.284125 5.21661,-13.310593 2.38061,-2.062661 3.05151,-2.472173 6.0869,-3.715763 2.52464,-1.034346 3.54161,-1.171517 7.70888,-1.039631 4.00388,0.12664 5.26485,0.372869 7.59819,1.483491 l 0,0 z m -48.82767,7.717199 c -0.0951,0.397807 -0.50895,2.376689 -0.91974,4.39757 -1.22306,6.016675 -1.66346,7.307119 -2.67314,7.83285 -0.84766,0.441353 -1.1764,0.1008 -2.79448,-2.894979 -2.72281,-5.041099 -3.20712,-4.934244 -5.37609,1.185994 -0.59669,1.683682 -0.90123,1.959634 -2.16267,1.959634 -1.1986,0 -1.72329,-0.404834 -2.85731,-2.204587 -1.80461,-2.864064 -3.13737,-7.744977 -2.36275,-8.653026 1.10518,-1.295566 1.81731,-0.645257 2.38894,2.181564 0.56171,2.777687 1.70278,5.001732 2.56622,5.001732 0.23866,0 0.9241,-1.432985 1.52317,-3.184412 0.99053,-2.895851 1.21537,-3.184405 2.48139,-3.184405 1.01151,0 1.96368,0.610965 3.48232,2.23442 1.14958,1.228942 2.28549,2.116949 2.52423,1.973404 0.23875,-0.143538 0.58411,-1.502895 0.76748,-3.020779 0.42858,-3.547724 1.07583,-4.722331 2.48634,-4.512014 0.66382,0.09896 1.03049,0.45018 0.92609,0.887034 l 0,0 z m 5.33075,3.350335 c 1.90903,0.994029 2.17053,3.379248 0.63851,5.823846 -0.82236,1.312214 -1.31037,1.592206 -2.77508,1.592206 -1.46472,0 -1.95272,-0.279992 -2.77508,-1.592206 -2.16138,-3.448862 -0.66341,-7.625436 2.4258,-6.76344 0.80728,0.225261 1.92592,0.648051 2.48585,0.939594 l 0,0 z m 9.34377,-0.460018 c 1.40495,0.519691 2.17604,1.996621 1.31325,2.515386 -0.32162,0.193365 -1.43292,0.240936 -2.46956,0.105672 -2.23954,-0.292274 -3.18161,0.624927 -1.34113,1.305754 2.55097,0.943571 3.74185,4.48197 2.05937,6.118852 -1.65443,1.609602 -4.43771,0.631777 -5.54578,-1.948334 -1.22126,-2.84368 -0.92931,-5.101247 0.89675,-6.934187 1.65256,-1.658784 2.94698,-1.954794 5.0871,-1.163143 z m 81.41672,52.94319 c 5.21369,2.58775 6.57062,8.4996 2.88759,12.58065 -1.9754,2.18889 -4.1246,3.10343 -7.26843,3.09291 -2.9658,-0.01 -5.9408,-1.54413 -7.59874,-3.91868 -1.59919,-2.2904 -1.41646,-6.80956 0.37429,-9.25626 2.36401,-3.22998 7.7817,-4.3964 11.60529,-2.49862 l 0,0 z m -116.61664,43.24707 c 5.22316,2.91332 4.92809,10.33579 -0.51069,12.84672 -3.96374,1.82993 -9.54859,0.0745 -11.07566,-3.48113 -2.2135,-5.15408 1.51911,-10.45983 7.35855,-10.45983 1.42372,0 2.99521,0.40674 4.2278,1.09424 l 0,0 z m -100.50798,50.0386 c 5.09118,2.57715 5.43787,9.16817 0.6123,11.64034 -6.77752,3.47217 -14.078,-3.95393 -9.47901,-9.64212 2.00008,-2.4738 6.10132,-3.39806 8.86671,-1.99822 l 0,0 z m 83.19556,6.58763 c 5.38733,2.78523 5.37694,10.29505 -0.0178,12.93205 -4.03731,1.97344 -9.21001,0.42836 -11.06817,-3.30604 -1.13958,-2.29026 -1.24293,-3.49511 -0.47005,-5.47967 1.68716,-4.33224 7.3007,-6.34638 11.55611,-4.14634 l -2e-5,0 z m -9.32365,24.27367 c 4.65789,2.07357 7.32484,5.76141 7.70409,10.65314 0.51373,6.62647 -4.02884,12.19266 -11.11913,13.62471 -8.63044,1.74311 -16.95688,-4.50064 -16.95688,-12.71546 0,-9.68785 10.80593,-15.82092 20.37192,-11.56239 l 0,0 z m 22.87609,1.15183 c 1.67726,1.32784 0.61344,3.68662 -2.40877,5.34091 -4.15253,2.27299 -7.1211,4.32036 -7.1221,4.91197 -0.002,0.76629 5.12892,2.60723 7.26561,2.60723 1.02888,0 1.80176,-0.28416 1.97628,-0.7266 0.4242,-1.07549 1.83538,-0.3343 1.83538,0.96398 0,1.8165 -1.19298,2.37628 -4.45157,2.0888 -3.27681,-0.28907 -6.66552,-1.76002 -7.85229,-3.40845 -1.78369,-2.47755 -0.47987,-4.75161 4.08897,-7.13178 1.61015,-0.83881 3.38075,-1.8785 3.93466,-2.3104 0.93969,-0.73272 0.70374,-0.77569 -3.5249,-0.6419 -4.32174,0.13673 -4.53924,0.094 -4.68781,-0.92101 -0.1871,-1.27816 0.54536,-1.46848 6.01681,-1.56338 2.98836,-0.0519 4.08843,0.1246 4.92973,0.79063 l 0,0 z m 41.19064,1.09622 -0.26933,1.95357 2.14323,-1.70861 c 2.50373,-1.99602 3.80474,-2.20384 3.79571,-0.60632 -0.004,0.72332 -0.62874,1.49476 -1.81686,2.24379 l -1.81062,1.1415 1.81685,1.61908 c 2.07448,1.84864 2.25985,3.01147 0.7732,4.85022 -1.81063,2.23946 -5.03996,1.50786 -6.30054,-1.42735 -0.72232,-1.68193 -1.00995,-9.07703 -0.37699,-9.69284 0.18463,-0.17964 0.78097,-0.32661 1.32519,-0.32661 0.86321,0 0.95511,0.2493 0.72016,1.95357 l 0,0 z m -37.37824,0.98589 c 0.18717,1.07779 0.52794,1.95964 0.75729,1.95964 0.22933,0 1.13486,-0.88185 2.01228,-1.95964 1.48821,-1.82811 3.52489,-2.64728 3.52489,-1.41775 0,0.29804 -0.6976,1.3988 -1.55022,2.44616 l -1.55022,1.90426 1.802,1.65344 c 1.98646,1.8227 2.23512,2.63157 0.9558,3.10919 -0.59949,0.22381 -1.40653,-0.31627 -2.7682,-1.85253 l -1.922,-2.16845 -0.002,2.57202 c -8e-4,1.93157 -0.18504,2.57202 -0.73899,2.57202 -1.05236,0 -1.60425,-1.28725 -1.99544,-4.65414 -0.18784,-1.61669 -0.46806,-3.65594 -0.62273,-4.53165 -0.24051,-1.36187 -0.13379,-1.59221 0.73771,-1.59221 0.79629,0 1.09324,0.42814 1.35919,1.95964 l 1.4e-4,0 z m 10.18198,4.89909 c 0.70581,5.10053 0.58661,6.03412 -0.73877,5.78622 -0.93344,-0.1746 -1.33451,-1.74413 -1.95916,-7.6667 -0.32263,-3.05893 -0.30975,-3.10277 0.86319,-2.93945 1.10182,0.15342 1.23878,0.51319 1.83474,4.81993 z m 3.06156,-4.3112 c 0.33235,0.32334 0.61615,1.15006 0.63068,1.83716 l 0.0265,1.24927 0.79034,-1.1023 c 1.74633,-2.43562 3.68964,-0.73875 3.68696,3.2194 -0.002,3.18755 -1.44298,6.14822 -2.75389,5.6588 -0.95405,-0.35618 -0.95529,-0.60898 -0.0138,-2.80125 1.07553,-2.50432 0.98142,-2.93149 -0.56277,-2.55442 -1.63376,0.39894 -2.95196,-0.65353 -3.7444,-2.98959 -0.87836,-2.58931 0.29791,-4.11511 1.94046,-2.51707 l -2e-5,0 z m 7.55335,0 c 0.33234,0.32334 0.60426,0.98472 0.60426,1.46973 0,1.06887 0.78722,1.16617 1.18922,0.14697 0.41226,-1.04524 2.20382,-0.91015 2.82152,0.21275 1.49385,2.71563 -0.25196,9.77303 -2.2345,9.03288 -0.94596,-0.35316 -0.94956,-1.03926 -0.0138,-2.63186 1.24176,-2.11336 0.97864,-2.9602 -0.87585,-2.81884 -1.47161,0.11217 -1.75096,-0.0952 -2.85571,-2.1209 -1.22745,-2.25061 -1.18961,-3.87862 0.0902,-3.87862 0.36873,0 0.94235,0.26455 1.27469,0.58789 l 1e-5,0 z m 12.43997,-0.0972 c 0.98044,0.36266 1.28464,0.77811 1.16579,1.5922 -0.14174,0.97093 -0.40819,1.08259 -2.24766,0.94197 -2.39847,-0.18336 -3.35965,0.67352 -1.51916,1.35431 3.56774,1.31968 3.78102,6.88873 0.26383,6.88873 -2.59832,0 -4.46294,-2.48748 -4.46294,-5.95373 0,-1.67942 0.31191,-2.39621 1.60945,-3.69865 1.67451,-1.68084 2.9439,-1.95591 5.19069,-1.12483 l 0,0 z m -123.96746,1.22165 c 6.02955,1.52793 10.46434,4.95579 12.7811,9.87909 6.08961,12.94098 -4.54558,26.71508 -19.67434,25.48112 -7.22327,-0.58917 -14.04744,-5.35264 -16.47275,-11.49851 -1.50571,-3.8155 -1.50571,-9.11968 0,-12.93519 3.33325,-8.44661 13.81317,-13.34727 23.36599,-10.92651 l 0,0 z m -71.50895,8.18021 c -0.0519,0.18664 0.6589,1.13942 1.57954,2.1173 1.39171,1.47821 1.95943,1.75137 3.36748,1.62029 1.51311,-0.14085 1.71075,-0.33206 1.85479,-1.79434 0.14408,-1.46284 0.29116,-1.60495 1.38477,-1.33791 0.69617,0.16998 1.22358,0.0836 1.22358,-0.20048 0,-0.27458 0.43953,-0.49923 0.97672,-0.49923 0.76235,0 1.01101,0.39765 1.133,1.81188 l 0.15629,1.81188 1.82892,-1.56693 c 1.72456,-1.47752 2.93269,-1.91511 3.5715,-1.29361 0.60826,0.59178 -0.25326,2.00577 -1.88478,3.09342 l -1.715,1.14328 1.74335,1.59964 c 2.00298,1.83786 2.17414,3.02357 0.69969,4.84723 -1.12259,1.38846 -2.24608,1.59729 -4.12124,0.76607 -1.82909,-0.81081 -2.45034,-2.21715 -2.77096,-6.27274 l -0.29532,-3.73553 -0.60323,3.45393 c -1.45281,8.31852 -4.33762,8.72709 -7.20362,1.0202 -1.50501,-4.04709 -1.77863,-4.04769 -2.34204,-0.006 -0.49787,3.57226 -1.23049,5.52499 -2.27738,6.07009 -0.81834,0.42609 -1.17217,0.0551 -2.77189,-2.90674 -2.72281,-5.04107 -3.20712,-4.93423 -5.37609,1.186 -0.59669,1.68368 -0.90123,1.95964 -2.16268,1.95964 -1.19859,0 -1.72328,-0.40484 -2.8573,-2.2046 -1.80461,-2.86403 -3.13737,-7.74494 -2.36276,-8.65301 1.10518,-1.29556 1.81732,-0.64525 2.38895,2.18155 0.56171,2.7777 1.70277,5.00171 2.56621,5.00171 0.23867,0 0.92411,-1.43298 1.52318,-3.1844 0.99052,-2.89586 1.21537,-3.18441 2.48139,-3.18441 1.0115,0 1.96367,0.61096 3.48231,2.23442 1.14959,1.22893 2.28549,2.11696 2.52424,1.97341 0.23875,-0.14355 0.58411,-1.50291 0.76748,-3.0208 0.4275,-3.53877 1.07616,-4.71897 2.48634,-4.52365 0.60441,0.0837 1.05646,0.30491 1.00456,0.49154 l 0,0 z m 24.41597,1.57656 c 1.47668,0.75055 3.66512,2.8922 4.55018,4.45293 0.41493,0.73168 0.55952,0.7859 0.57096,0.21413 0.0244,-1.22039 2.69925,-3.39854 4.17351,-3.39854 1.97988,0 3.89871,1.01074 3.89871,2.05365 0,1.18278 -1.0018,1.53969 -2.63062,0.9372 -0.91362,-0.33795 -1.54039,-0.30296 -2.13366,0.1191 -0.7452,0.53013 -0.64076,0.69006 0.92516,1.41654 3.44787,1.59963 3.36703,6.74142 -0.106,6.74142 -1.90027,0 -3.50708,-1.57763 -4.20962,-4.13316 -0.56794,-2.06592 -0.62026,-2.10741 -2.12723,-1.68692 -2.50285,0.69835 -5.83184,0.54477 -5.83184,-0.26905 0,-0.45339 0.96643,-0.89532 2.74223,-1.25399 3.11981,-0.63011 3.24694,-1.31184 0.54737,-2.93506 -3.00906,-1.8093 -5.30383,-0.86976 -5.30383,2.17154 0,2.01242 2.24532,4.30791 5.33763,5.45686 1.43936,0.5348 2.05409,1.01977 1.87338,1.47793 -0.40833,1.03525 -2.02606,0.82219 -4.76361,-0.62739 -4.43644,-2.34917 -5.85429,-6.80344 -3.15797,-9.92099 1.46425,-1.693 3.37627,-1.96944 5.64525,-0.8162 l 0,0 z m 174.96604,10.27634 c 9.29492,2.12796 13.59684,11.68054 8.7642,19.46123 -3.85776,6.21114 -12.37546,8.36602 -19.36196,4.89837 -9.73042,-4.82956 -9.74006,-18.29858 -0.0166,-23.1247 3.76736,-1.86988 6.46821,-2.1841 10.61432,-1.2349 l 0,0 z m 37.13212,8.38396 c 0,2.09648 0.40012,2.13973 2.26601,0.24494 1.42748,-1.44959 2.9443,-1.89377 3.49681,-1.02402 0.50268,0.79131 -0.28246,1.95926 -2.01894,3.00338 l -1.69531,1.01937 1.74528,1.49085 c 2.03511,1.73842 2.28837,3.5769 0.71855,5.21624 -1.42424,1.48731 -3.2928,1.35428 -5.05468,-0.35986 -1.41832,-1.37987 -1.47194,-1.59997 -1.47194,-6.04221 0,-4.68354 0.14793,-5.26338 1.34282,-5.26338 0.43162,0 0.6714,0.61239 0.6714,1.71469 z m -16.10507,0.083 c 0.78266,0.44979 1.69632,1.31465 2.03036,1.9219 0.78988,1.43591 0.24459,3.47987 -1.03365,3.87458 -0.85088,0.26273 -0.95942,0.59688 -0.70219,2.1619 0.2652,1.61353 0.12728,1.98658 -1.07452,2.90629 -1.70019,1.30113 -3.2839,1.34291 -4.82687,0.12736 -1.06755,-0.84102 -1.17874,-1.32211 -1.18878,-5.14398 -0.008,-3.04057 -0.18661,-4.21621 -0.64054,-4.21626 -0.93731,-9e-5 -0.76078,-1.34668 0.25178,-1.92045 1.392,-0.78879 5.60409,-0.61957 7.18441,0.28866 l 0,0 z m 11.35851,1.78357 c 0.95212,0.79677 1.45965,1.82 1.71513,3.45774 0.52471,3.36377 0.15201,4.71888 -1.29787,4.71888 -1.11446,0 -1.17145,-0.1356 -0.89159,-2.12203 0.54916,-3.89793 -2.19011,-6.83483 -4.38405,-4.70034 -0.74178,0.72168 -0.96974,1.63443 -0.96974,3.88292 0,2.84335 -0.043,2.93945 -1.31691,2.93945 -1.30769,0 -1.31441,-0.0195 -0.95925,-2.7851 0.66598,-5.18584 1.66277,-6.52318 4.86211,-6.52318 1.24844,0 2.34888,0.3841 3.24217,1.13166 z m 13.20632,-0.0539 c 0.33234,0.32333 0.6093,1.15006 0.61546,1.83716 l 0.0112,1.24926 0.91674,-1.15975 c 1.102,-1.39411 2.82183,-1.09859 3.27984,0.56359 1.07318,3.8946 -1.02448,10.02392 -2.82952,8.2678 -0.38032,-0.37002 -0.29405,-1.14144 0.29565,-2.64371 1.09862,-2.79873 1.06376,-2.98598 -0.48543,-2.60769 -1.63377,0.39893 -2.95196,-0.65353 -3.74441,-2.98959 -0.87835,-2.58931 0.29791,-4.1151 1.94047,-2.51707 l 10e-6,0 z m 9.89812,1.0506 c 0.9314,0.66261 0.93625,0.83385 0.16877,5.9551 -0.10438,0.69655 0.32315,1.19227 1.47883,1.71468 1.6844,0.76143 2.20272,2.273 0.94094,2.74407 -1.16037,0.4332 -4.78322,-1.64716 -5.11619,-2.93791 -0.16484,-0.63896 -0.0564,-2.01414 0.24091,-3.05597 0.73361,-2.57047 0.71838,-2.6291 -0.68294,-2.6291 -1.38739,0 -2.01682,-0.68343 -1.60082,-1.73814 0.35707,-0.9053 3.32396,-0.93951 4.5705,-0.0527 l 0,0 z m -249.9066,30.68383 c 0.74429,0.0257 3.52007,2.66497 4.25302,4.04394 1.792,3.37142 0.45612,8.36276 -2.79914,10.4586 -5.05405,3.25398 -11.83314,1.32036 -13.90873,-3.96721 -2.4316,-6.1945 3.46512,-12.41868 10.35337,-10.92833 0.96934,0.20972 1.915,0.38658 2.10148,0.393 l 0,0 z m -70.90484,1.24809 c -0.0374,0.26306 -0.21714,0.95772 -0.39956,1.54371 -0.26649,0.856 -0.10468,1.09676 0.82322,1.22477 1.05891,0.14611 1.2119,0.55996 1.84054,4.97928 0.48668,3.42128 0.5294,4.97192 0.14724,5.34375 -1.07048,1.04145 -1.8909,-0.57484 -2.59916,-5.12053 l -0.70944,-4.55323 -0.41802,2.44953 c -0.72375,4.24105 -1.39107,6.09178 -2.38265,6.60808 -0.84765,0.44135 -1.17639,0.1008 -2.79448,-2.89498 -2.7228,-5.04107 -3.20712,-4.93422 -5.37608,1.186 -0.59669,1.68367 -0.90124,1.95963 -2.16268,1.95963 -1.19859,0 -1.72328,-0.40483 -2.8573,-2.20459 -1.80461,-2.86404 -3.13738,-7.74495 -2.36275,-8.65301 1.10517,-1.29556 1.81731,-0.64525 2.38895,2.18155 0.56169,2.77772 1.70277,5.00173 2.56621,5.00173 0.23867,0 0.92409,-1.43298 1.52316,-3.18441 0.99053,-2.89586 1.21538,-3.1844 2.4814,-3.1844 1.01151,0 1.96368,0.61096 3.48232,2.23441 1.14958,1.22893 2.28548,2.11697 2.52423,1.97342 0.23874,-0.14355 0.58411,-1.50292 0.76748,-3.0208 0.42857,-3.54772 1.07583,-4.72231 2.48633,-4.51202 0.60442,0.0901 1.06839,0.37907 1.03104,0.64211 l 0,0 z m 9.2578,2.50174 c 2.0606,0.53727 1.30432,1.58649 -1.25889,1.7465 -2.37807,0.14846 -2.39164,0.15923 -2.34911,1.86401 0.0235,0.94306 0.2261,2.6739 0.45016,3.84629 0.3679,1.92503 0.31641,2.11457 -0.53133,1.95574 -1.20159,-0.22514 -2.13773,-3.17791 -2.18891,-6.90434 l -0.0387,-2.81698 2.39189,0.007 c 1.31555,0.004 2.90175,0.13962 3.5249,0.3021 l 0,3e-5 z m 15.63185,1.10665 c 1.88581,0.9819 2.02106,3.72753 0.31035,6.30065 -1.28284,1.9296 -5.74518,1.01446 -5.74518,-1.17823 0,-0.36241 -0.35633,-0.65893 -0.79184,-0.65893 -0.64407,0 -0.76643,0.5257 -0.65567,2.81697 0.12193,2.52251 0.0276,2.83243 -0.90261,2.96486 -0.92134,0.13117 -1.07776,-0.1873 -1.38356,-2.81697 -0.29054,-2.49844 -0.49929,-2.96486 -1.32689,-2.96486 -1.12348,0 -1.21856,0.66361 -0.41599,2.90346 0.68938,1.92399 0.0571,2.8445 -1.42412,2.07326 -2.40652,-1.25301 -2.3279,-10.5997 0.0863,-10.26336 0.80774,0.11254 1.0078,0.47816 0.94921,1.7348 -0.05,1.07121 0.156,1.59221 0.62944,1.59221 0.46852,0 0.70369,-0.57306 0.70369,-1.71469 0,-1.15945 0.23295,-1.71468 0.71937,-1.71468 1.10274,0 2.30197,1.40689 2.30197,2.70058 0,0.63847 0.22661,1.29711 0.50356,1.46363 0.29909,0.17985 0.50356,-0.3939 0.50356,-1.41302 0,-2.97707 2.34339,-3.69752 5.93838,-1.82568 z m 11.22127,0.0165 c 1.32847,1.29248 1.47193,1.74609 1.47193,4.65414 0,3.13085 -0.0365,3.2221 -1.28974,3.2221 -1.24331,0 -1.27751,-0.0794 -0.9498,-2.20549 0.56089,-3.63887 -2.23191,-6.67179 -4.29515,-4.66447 -0.79613,0.77456 -1.01865,1.63316 -1.01865,3.9305 0,2.85108 -0.04,2.93946 -1.33063,2.93946 -1.32632,0 -1.3296,-0.01 -1.01352,-2.95174 0.33011,-3.07263 1.36056,-5.59848 2.45944,-6.02865 0.35202,-0.13779 1.50723,-0.26793 2.56712,-0.2892 1.48984,-0.0299 2.26102,0.28623 3.399,1.39335 l 0,0 z m 15.29604,-0.37359 c 1.36047,0.60307 1.7377,2.23175 0.61409,2.65124 -0.36767,0.13726 -1.25062,0.0342 -1.96212,-0.22894 -0.91361,-0.33793 -1.54038,-0.30296 -2.13366,0.11911 -0.74624,0.53088 -0.64859,0.68642 0.87467,1.39312 4.28314,1.98713 3.17719,8.01247 -1.17717,6.41342 -1.20982,-0.44427 -1.42814,-0.38231 -1.65735,0.47042 -0.21464,0.79855 -0.52854,0.92085 -1.6796,0.6544 -2.76998,-0.64123 -3.93434,-1.90564 -3.9237,-4.26078 0.006,-1.18061 0.18547,-2.62701 0.40029,-3.2142 0.33516,-0.91613 0.19087,-1.08994 -1.01681,-1.22479 -1.01424,-0.11323 -1.45236,-0.46507 -1.56832,-1.25943 -0.14336,-0.98206 0.0541,-1.1023 1.81029,-1.1023 1.33304,0 2.26688,0.31786 2.88451,0.98184 0.83278,0.89527 0.85443,1.22064 0.24548,3.69024 -0.7004,2.84048 -0.53669,3.31377 1.33619,3.86292 1.06029,0.31089 1.06676,0.27926 0.3542,-1.73289 -1.77183,-5.0034 2.08178,-9.21579 6.59901,-7.21338 z m 86.5093,4.63567 c 4.3403,2.98341 5.54767,8.95422 2.62656,12.98909 -2.83789,3.91991 -8.56324,5.47332 -13.21032,3.58427 -6.82777,-2.77551 -8.2624,-11.81363 -2.54825,-16.05391 2.63171,-1.9529 3.91432,-2.30737 7.63773,-2.1108 2.80199,0.14792 3.82572,0.44443 5.49428,1.59135 z m 64.56106,3.29715 c 5.80192,2.58421 8.98269,7.17646 8.97793,12.96191 -0.009,11.03301 -12.14538,18.08894 -22.80545,13.25888 -11.48453,-5.20361 -11.79594,-20.29898 -0.53407,-25.88864 4.52246,-2.24467 9.79403,-2.36658 14.36159,-0.33215 l 0,0 z m 108.21433,7.85032 c 2.39348,0.97297 3.52811,3.5645 3.56549,8.14378 0.0274,3.34835 -0.0587,3.67432 -0.96962,3.67432 -0.69468,0 -1.33935,-0.69614 -2.11323,-2.28199 -1.78176,-3.65119 -3.0422,-3.67543 -3.64116,-0.07 -0.23933,1.44066 -0.56421,1.8975 -1.43556,2.01861 -2.49459,0.34677 -0.80728,-5.46715 1.77839,-6.12776 1.87912,-0.48009 3.26868,-0.23413 4.01929,0.71143 0.90161,1.13577 0.8122,-0.0963 -0.15016,-2.06941 -0.86369,-1.77077 -2.52599,-2.71394 -4.78321,-2.71394 -1.39832,0 -1.9807,-0.82608 -1.15127,-1.63302 0.56315,-0.5479 3.12679,-0.36512 4.88104,0.34797 l 0,0 z m -68.93597,3.38131 c 0.13437,0.59849 0.47814,2.30068 0.76392,3.78266 0.28578,1.48197 0.66243,3.32268 0.837,4.09046 0.26909,1.18349 0.17288,1.36955 -0.63209,1.22244 -0.70009,-0.12794 -1.17195,-1.00938 -1.79637,-3.3556 -0.46578,-1.75014 -0.8767,-3.2923 -0.91314,-3.42703 -0.0365,-0.13473 -0.67886,0.96526 -1.42759,2.44442 -1.23912,2.44798 -3.10685,3.89667 -3.10685,2.40981 0,-0.96097 3.16306,-8.49267 3.72165,-8.86179 0.77858,-0.5145 2.28137,0.48285 2.55347,1.69463 l 0,0 z m 5.22484,-1.66592 c 0.78051,0.48133 0.60546,2.59034 -0.23739,2.86005 -0.80935,0.259 -2.19856,-1.2231 -2.19856,-2.34556 0,-0.99587 1.23303,-1.2563 2.43595,-0.51449 l 0,0 z m 30.47589,3.2973 c 0.23785,1.31792 0.72337,3.44503 1.07894,4.7269 0.39073,1.40865 0.45994,2.44282 0.17493,2.61419 -0.93273,0.56085 -1.91716,-0.92775 -2.49138,-3.76733 -0.32167,-1.59072 -0.72533,-2.88845 -0.89702,-2.88385 -0.17168,0.005 -0.85,1.21712 -1.50737,2.69451 -0.83983,1.88743 -1.47618,2.68613 -2.14011,2.68613 -0.97233,0 -1.35912,-1.65275 -0.50673,-2.16527 0.24098,-0.14491 0.95769,-1.64601 1.59269,-3.3358 1.55722,-4.14396 1.86864,-4.49826 3.20322,-3.64426 0.69679,0.44589 1.20866,1.50017 1.49283,3.07478 l 0,0 z m -57.08255,-1.17866 0,2.05906 1.90957,-1.8141 c 2.10485,-1.99964 4.13311,-2.42542 4.13311,-0.86765 0,0.52053 -0.73646,1.44122 -1.63656,2.04593 -0.90011,0.60472 -1.73706,1.17679 -1.85988,1.27128 -0.12283,0.0945 0.50032,0.81483 1.38478,1.60076 1.90639,1.69404 2.15121,3.89526 0.60099,5.40347 -1.69167,1.64583 -4.50415,0.95116 -5.76679,-1.42435 -0.79274,-1.49145 -1.1403,-9.32918 -0.44374,-10.00686 0.96891,-0.94265 1.67852,-0.21024 1.67852,1.73246 l 0,0 z m 39.72446,-1.43946 c 1.90179,0.95717 1.31338,1.56519 -1.77091,1.82994 -3.78223,0.32467 -4.11397,0.89293 -3.0385,5.20503 1.08987,4.36988 1.06881,5.08306 -0.15015,5.08306 -0.75316,0 -1.16985,-0.59705 -1.75533,-2.51516 -0.90763,-2.97347 -1.54435,-8.3697 -1.11578,-9.45627 0.3782,-0.95886 6.00742,-1.06424 7.83067,-0.1466 z m 34.16432,-0.007 c 0.30472,0.37863 0.34191,2.08103 0.0974,4.45984 -0.44228,4.3036 -0.29412,5.04773 1.09021,5.47519 0.52833,0.16313 0.96059,0.62831 0.96059,1.03371 0,0.60788 -0.50761,0.68094 -2.89544,0.41677 -3.9068,-0.43224 -4.6579,-0.67377 -4.6579,-1.49787 0,-0.44644 0.52683,-0.70185 1.44773,-0.70185 1.68841,0 2.07717,-1.12156 2.07717,-5.99256 0,-2.60175 -0.0989,-2.89019 -0.88123,-2.57026 -2.6261,1.07392 -3.96255,0.73365 -2.54296,-0.64747 0.79633,-0.77475 4.67558,-0.75683 5.30439,0.0245 l 0,0 z m -26.69808,2.1404 c 2.38832,1.44885 2.59763,4.17838 0.4933,6.43301 -2.4799,2.65703 -5.88882,0.44115 -5.88882,-3.82789 0,-3.7427 1.96022,-4.68914 5.39552,-2.60515 l 0,3e-5 z m 34.24184,0 c 2.38832,1.44885 2.59763,4.17838 0.4933,6.43301 -2.4799,2.65703 -5.88882,0.44115 -5.88882,-3.82789 0,-3.7427 1.96022,-4.68914 5.39552,-2.60515 l 0,3e-5 z M 370.01406,336.463 c 1.51542,0.56055 2.21577,1.89348 1.28799,2.45135 -0.3526,0.21201 -1.48925,0.27479 -2.52588,0.13953 -2.23955,-0.29226 -3.18162,0.62495 -1.34114,1.30574 3.71615,1.37456 3.75228,6.88871 0.0451,6.88871 -2.30404,0 -4.24425,-2.85937 -4.24425,-6.25491 0,-1.34066 0.39856,-2.18201 1.60944,-3.39748 1.66996,-1.67626 2.94458,-1.95565 5.16869,-1.13296 l 0,2e-5 z m 53.06994,0.0553 c 1.04134,0.35314 1.58581,0.86304 1.58581,1.48508 0,1.21155 -0.98858,1.57528 -2.63062,0.96791 -0.94441,-0.34934 -1.54557,-0.29805 -2.22695,0.18996 -0.90282,0.64663 -0.90041,0.68002 0.0738,1.02143 2.03453,0.71301 3.27311,2.26965 3.27311,4.11363 0,2.06104 -0.72432,2.95204 -2.39981,2.95204 -1.90235,0 -2.95996,-0.80963 -3.83409,-2.93508 -1.22646,-2.98216 -1.04116,-4.61976 0.74694,-6.6011 1.66283,-1.84252 2.77555,-2.088 5.41183,-1.19389 l 0,2e-5 z m -170.55801,36.91212 c 4.28434,0.88347 7.00386,2.24911 10.11255,5.07812 11.51567,10.47963 6.87252,28.13747 -8.60009,32.70607 -3.11274,0.9191 -9.59004,0.88608 -12.95651,-0.0661 -9.59608,-2.71405 -15.91881,-12.28348 -14.3556,-21.72713 1.27754,-7.71776 7.74096,-14.25601 15.76993,-15.95249 4.11236,-0.86892 5.96814,-0.87605 10.02972,-0.0385 l 0,0 z m 64.98178,13.84261 0.15629,1.81188 1.82892,-1.56692 c 1.72456,-1.47752 2.93269,-1.91511 3.5715,-1.29362 0.61706,0.60033 -0.25804,1.99041 -1.91988,3.04972 l -1.75461,1.11844 1.7807,1.63391 c 2.03945,1.87131 2.21748,3.05045 0.73705,4.88149 -2.18684,2.70478 -6.15004,0.77426 -6.77831,-3.30176 l -0.31698,-2.05651 -2.44779,-0.10362 c -2.72247,-0.11525 -3.74187,0.6271 -1.83152,1.33373 3.56774,1.31968 3.78103,6.88872 0.26383,6.88872 -2.61265,0 -4.46294,-2.48895 -4.46294,-6.00343 0,-1.78753 0.28063,-2.39745 1.73338,-3.76734 1.53401,-1.44652 1.95373,-1.59974 3.64913,-1.33207 1.05367,0.16636 2.19976,0.68032 2.54686,1.14216 0.5486,0.72992 0.6311,0.60854 0.6311,-0.92857 0,-2.38538 0.43125,-3.31812 1.53414,-3.31812 0.70023,0 0.96054,0.43707 1.07913,1.81189 l 0,2e-5 z m -39.87646,1.61745 0,2.44956 2.95699,0 2.95697,0 0.32764,-1.99341 c 0.25243,-1.53585 0.52727,-1.95615 1.19736,-1.83111 0.76305,0.14239 0.88695,0.95775 1.01023,6.64755 0.13508,6.23446 0.101,6.48524 -0.88122,6.48524 -0.92559,0 -1.02182,-0.31117 -1.02277,-3.30689 l -8e-4,-3.30688 -3.27209,-0.15438 -3.27208,-0.15437 0,3.21631 c -3e-5,2.88969 -0.10229,3.2163 -1.00714,3.2163 -0.89991,0 -1.00711,-0.32661 -1.00711,-3.06823 0,-2.71199 -0.13155,-3.1244 -1.133,-3.55185 -0.62315,-0.26598 -1.13301,-0.8143 -1.13301,-1.21847 0,-0.40417 0.50986,-0.80531 1.13301,-0.89142 1.00001,-0.13817 1.133,-0.44008 1.133,-2.57202 0,-2.08886 0.13617,-2.41547 1.00711,-2.41547 0.87283,0 1.00711,0.32661 1.00711,2.44954 z m 15.61026,0.46454 c 0.91632,0.62466 1.29971,1.38534 1.40891,2.79541 0.29418,3.79855 -3.47159,6.0646 -5.88684,3.5424 -1.84366,-1.92532 -1.81822,-6.7462 0.0393,-7.43497 0.99498,-0.36895 3.02357,0.1325 4.43866,1.09716 l -1e-5,0 z m 12.34699,1.6189 c 0.169,0.87642 0.23591,2.69521 0.1487,4.04174 -0.13912,2.14804 -0.30461,2.46835 -1.34964,2.61219 -0.65509,0.0902 -1.42305,-0.0617 -1.70658,-0.33757 -0.35163,-0.34211 -0.78638,-0.17607 -1.36763,0.52229 -1.25695,1.51017 -3.39004,0.85464 -4.32835,-1.33018 -0.69733,-1.62372 -1.01863,-6.12218 -0.43728,-6.12218 1.19979,0 2.2338,1.1949 2.24061,2.58926 0.0122,2.49285 0.76295,3.1847 1.43142,1.31913 0.48071,-1.34162 0.75833,-1.53898 1.87316,-1.33165 1.23343,0.2294 1.2914,0.15314 1.00653,-1.32417 -0.33572,-1.74102 -0.0537,-2.23238 1.28141,-2.23238 0.61727,0 0.99699,0.50103 1.20765,1.59352 l 0,0 z m -90.32314,18.85017 c 9.10601,3.94213 11.47112,15.54958 4.5758,22.45704 -7.29433,7.30717 -20.90319,5.34459 -25.21912,-3.63695 -1.81311,-3.77312 -1.83676,-8.564 -0.0594,-12.01345 1.53446,-2.97788 4.83102,-5.84733 8.21817,-7.15342 3.35464,-1.29355 9.06162,-1.13502 12.48448,0.34678 z m 46.77862,7.53608 c 9.15207,4.15858 12.98437,13.92383 8.76287,22.32904 -1.69569,3.3762 -5.98439,7.14206 -9.66875,8.49 -3.57914,1.30945 -9.83097,1.43061 -13.21668,0.25613 -6.9289,-2.40357 -12.02082,-8.93741 -12.06891,-15.48659 -0.0322,-4.38292 2.21346,-9.52998 5.33971,-12.23867 2.38266,-2.06441 3.05258,-2.47283 6.0869,-3.71098 4.07742,-1.66378 10.66308,-1.50272 14.76486,0.36107 z m -126.84298,2.62194 -0.17085,1.92947 2.06298,-1.81327 c 1.13465,-0.9973 2.51555,-1.81328 3.06865,-1.81328 1.63681,0 1.19891,1.76638 -0.80687,3.25481 l -1.81255,1.34502 1.64469,1.30595 c 3.67811,2.92056 0.55951,7.99633 -3.58661,5.83753 -1.75956,-0.91617 -2.4899,-3.10817 -2.4899,-7.4731 0,-4.28348 0.19362,-4.89002 1.48378,-4.6483 0.58056,0.10878 0.73427,0.63452 0.60668,2.07517 l 0,0 z m 9.40951,-1.26674 c 0.78051,0.48133 0.60546,2.59034 -0.23739,2.86005 -0.80935,0.259 -2.19856,-1.22309 -2.19856,-2.34556 0,-0.99587 1.23304,-1.2563 2.43595,-0.51449 l 0,0 z m 32.00055,0.30453 c -0.0314,0.26945 -0.58146,0.71037 -1.22232,0.97982 -4.37781,1.84065 -5.26963,2.47374 -5.432,3.85599 -0.0909,0.77355 -0.0225,1.95976 0.15199,2.63603 0.30869,1.19659 0.41114,1.22305 3.81599,0.98604 3.80291,-0.26472 4.39647,0.19257 2.23548,1.72224 -4.3663,3.09073 -9.91006,-1.45481 -8.19645,-6.72059 0.52201,-1.60407 1.08679,-2.20667 2.91353,-3.10852 2.27247,-1.12193 5.84919,-1.34088 5.73378,-0.35101 l 0,0 z m -48.35251,1.0191 c 3.18359,1.73112 4.34844,3.29859 4.34844,5.85142 0,3.22503 -1.03064,4.0688 -5.99782,4.91029 -2.32945,0.39464 -4.33243,0.62309 -4.45106,0.50767 -0.44267,-0.43067 -0.75112,-8.07622 -0.41405,-10.26304 0.3459,-2.24408 0.3722,-2.27039 2.2699,-2.27039 1.12751,0 2.87941,0.52172 4.24459,1.26405 l 0,0 z m 25.10983,-0.68177 c 0.10972,0.32026 0.0687,1.47766 -0.0911,2.57202 -0.15985,1.09436 -0.2129,2.50118 -0.1179,3.12628 0.15017,0.98819 0.52799,0.6917 2.89468,-2.27168 4.49481,-5.62804 5.55217,-5.2425 6.32971,2.30801 0.52869,5.13398 0.25658,6.42073 -1.35775,6.42073 -1.09006,0 -1.46532,-1.03565 -1.73051,-4.77583 l -0.25178,-3.55105 -2.11221,2.66194 c -2.92189,3.68236 -3.83325,4.08937 -5.50811,2.4599 -1.2358,-1.2023 -1.30433,-1.5079 -1.0847,-4.83743 0.12895,-1.95474 0.39754,-3.81082 0.59689,-4.12463 0.47304,-0.74465 2.17647,-0.73644 2.43281,0.0118 l 0,2e-5 z m 26.60841,1.49984 0.57787,2.08211 1.90186,-2.08211 c 1.77501,-1.94327 3.52745,-2.72906 3.52745,-1.5817 0,0.27521 -0.60243,1.38607 -1.33873,2.46855 l -1.33874,1.96814 1.59052,1.59652 c 0.87478,0.87808 1.59051,1.84859 1.59051,2.15666 0,1.39805 -1.28134,1.05005 -3.32755,-0.90372 l -2.22649,-2.12592 0.13335,2.41787 c 0.106,1.92199 -0.0375,2.45224 -0.6997,2.58556 -1.08487,0.21841 -1.77278,-1.91188 -2.21759,-6.86729 -0.29376,-3.27268 -0.23105,-3.79679 0.45429,-3.79679 0.50904,0 1.00298,0.74905 1.37295,2.08212 l 0,0 z m -13.87936,1.34724 c 0.048,0.67362 0.26794,3.06558 0.48875,5.31545 0.37722,3.84366 0.34452,4.08001 -0.5415,3.91399 -0.64233,-0.12033 -1.07178,-0.79977 -1.34696,-2.13103 -1.6367,-7.91796 -1.61541,-8.74309 0.21884,-8.48002 0.75735,0.10862 1.12041,0.5334 1.18087,1.38161 l 0,0 z m 140.36243,9.83946 c 2.22348,1.85415 2.39135,2.15578 2.38418,4.28354 -0.004,1.25893 -0.19012,2.56856 -0.41307,2.91029 -0.58459,0.89608 -3.43396,1.58326 -6.56483,1.58326 l -2.71204,0 0.35266,-3.06194 c 0.19396,-1.68405 0.58191,-4.1091 0.8621,-5.389 0.47792,-2.18304 0.60815,-2.32687 2.10427,-2.3239 1.13505,0.002 2.28443,0.5782 3.98673,1.99775 l 0,0 z m -26.17056,2.16332 c -0.1571,2.02087 -0.17297,3.67431 -0.0353,3.67431 0.13769,0 1.47335,-1.52611 2.96813,-3.39138 4.06785,-5.07607 5.31489,-5.02218 6.01437,0.25992 0.71975,5.43501 0.61171,7.87659 -0.36465,8.2411 -1.61661,0.60353 -2.33335,-0.88128 -2.27436,-4.71162 l 0.0552,-3.58242 -1.30896,1.46972 c -0.71994,0.80835 -1.91585,2.14867 -2.65759,2.9785 -1.72895,1.93425 -2.26113,2.23783 -3.26562,1.86281 -2.03434,-0.75948 -2.76872,-4.28334 -1.72949,-8.29869 0.46255,-1.78718 0.77092,-2.17657 1.72362,-2.17657 1.13359,0 1.15371,0.0845 0.87465,3.67432 l 2e-5,0 z m 17.20874,-1.14614 c 1.36046,0.60307 1.7377,2.23175 0.61409,2.65123 -0.36767,0.13727 -1.25063,0.0343 -1.96212,-0.22892 -0.91361,-0.33795 -1.54039,-0.30296 -2.13366,0.11909 -0.74625,0.53088 -0.64859,0.68643 0.87467,1.39313 2.31148,1.0724 3.36174,3.43842 2.32594,5.23986 -1.45194,2.52517 -4.89646,1.54792 -6.33287,-1.79671 -2.06287,-4.80335 2.05619,-9.39805 6.61395,-7.37768 l 0,0 z"
       id="path3427"
       inkscape:connector-curvature="0" /><path
       style="fill:#ffffff;fill-opacity:1;fill-rule:nonzero;stroke:none"
       d="m 41.966884,610.81937 0,48.0111 227.859306,0 227.85931,0 0,-48.0154 0,-48.01541 -190.37966,0.015 -190.37966,0.015 -1.39806,1.00562 c -2.26133,1.62656 -4.9301,1.70791 -7.74787,0.23615 l -2.41855,-1.26325 -31.697405,0 -31.697411,0 0,48.0111 z m 74.120966,-42.50859 c 3.98281,1.77398 7.04444,4.6832 8.69558,8.26273 1.2107,2.62467 1.35558,3.46676 1.20094,6.97997 -0.20051,4.555 -1.32162,7.18734 -4.3727,10.26696 -3.74439,3.7794 -8.54847,5.50164 -14.33814,5.14015 -14.345055,-0.89566 -21.347835,-16.60174 -11.864805,-26.6108 5.146855,-5.43236 13.769625,-7.11655 20.679125,-4.03901 l 0,0 z m -27.979415,11.27687 c -0.64406,6.07314 -2.17293,9.12207 -4.25227,8.48 -1.34107,-0.41411 -1.79801,-1.2109 -3.62883,-6.32789 -1.6645,-4.65213 -1.2976,-5.81986 1.0581,-3.36758 2.37392,2.47124 5.89646,1.94648 5.16639,-0.76965 -0.23492,-0.874 -0.0756,-1.0768 0.84595,-1.0768 1.09167,0 1.12288,0.11788 0.81066,3.06192 z M 66.56601,577.55347 c 2.743281,0.9304 1.998287,1.9117 -1.451331,1.9117 -3.70022,0 -3.931951,0.36884 -3.054428,4.86147 0.952308,4.87551 0.940449,5.18168 -0.200689,5.18168 -1.406289,0 -2.344787,-2.90735 -2.648907,-8.20598 l -0.24604,-4.28671 3.007792,0 c 1.654284,0 3.721406,0.24203 4.593603,0.53784 l 0,0 z m 4.658985,3.29792 c 0.1875,0.89714 0.49847,3.26707 0.69105,5.26652 0.2968,3.08146 0.23305,3.63536 -0.41842,3.63536 -1.08204,0 -1.381602,-0.63826 -2.157649,-4.59716 -1.012248,-5.16386 -0.93324,-6.28392 0.429759,-6.09243 0.806555,0.11331 1.208518,0.6071 1.45526,1.78771 l 0,0 z m 5.99827,-0.15274 c 0.5655,0.66293 0.52085,3.48488 -0.0965,6.09944 -0.0923,0.39088 0.59992,1.05066 1.59976,1.52483 0.96935,0.4597 1.73979,1.07983 1.71209,1.37804 -0.12351,1.32999 -0.24676,1.52204 -0.97681,1.52204 -1.42239,0 -4.63086,-1.90233 -4.90052,-2.90554 -0.14639,-0.54462 -0.0676,-1.82223 0.17508,-2.83913 0.63764,-2.6719 0.57487,-3.07369 -0.48019,-3.07369 -1.13406,0 -2.29271,-1.22198 -1.83774,-1.93819 0.50034,-0.78762 4.08257,-0.6145 4.80485,0.2322 z m -8.537067,27.53147 c 8.053387,3.487 10.280737,13.85538 4.328667,20.15012 -0.5975,0.6319 -2.106072,1.73421 -3.352374,2.44955 -2.023758,1.16158 -2.777413,1.30063 -7.049791,1.30063 -4.272377,0 -5.026033,-0.13905 -7.049791,-1.30063 -8.402008,-4.82254 -9.169038,-14.86239 -1.618704,-21.18761 3.248397,-2.72131 10.183917,-3.38563 14.741993,-1.41206 z m 81.041772,3.48266 c 14.67036,3.75118 19.69867,20.8028 9.19697,31.18802 -9.7002,9.59261 -27.40761,7.01039 -33.6016,-4.90001 -7.61747,-14.64763 7.25896,-30.67212 24.40463,-26.28801 z m 46.83075,16.98828 c 0,2.09648 0.40011,2.13973 2.26601,0.24495 1.42748,-1.44959 2.94429,-1.89379 3.49681,-1.02403 0.48005,0.75569 -0.16427,1.70894 -1.96235,2.90322 l -1.72288,1.14433 1.73077,1.47845 c 2.03842,1.74124 2.252,3.46848 0.63587,5.14216 -1.47803,1.53065 -3.21341,1.42688 -4.98652,-0.29817 -1.41832,-1.37988 -1.47193,-1.59997 -1.47193,-6.04222 0,-4.68354 0.14792,-5.26337 1.34281,-5.26337 0.43162,0 0.67141,0.61238 0.67141,1.71468 z m -2.71444,-0.52683 c 0.4083,1.03517 -1.16089,8.55494 -2.06547,9.89811 -1.67828,2.49195 -3.48608,1.01069 -5.72347,-4.68963 -0.87008,-2.21678 -1.58197,-4.34236 -1.58197,-4.72351 0,-1.18647 1.3822,-0.76197 2.64978,0.8138 1.0025,1.24624 1.50951,1.47922 2.93194,1.34725 1.53162,-0.1421 1.73711,-0.33381 1.87764,-1.75177 0.16353,-1.65011 1.38757,-2.22273 1.91155,-0.89425 l 0,0 z m -12.38352,0.60977 c 0.78266,0.4498 1.69632,1.31465 2.03036,1.92189 0.78988,1.43591 0.24459,3.47988 -1.03366,3.87459 -0.85088,0.26274 -0.95941,0.59688 -0.70218,2.1619 0.2652,1.61353 0.12728,1.98658 -1.07452,2.90629 -1.70019,1.30113 -3.2839,1.34292 -4.82687,0.12736 -1.06755,-0.84103 -1.17874,-1.32211 -1.18879,-5.14399 -0.008,-3.04056 -0.1866,-4.2162 -0.64053,-4.21625 -0.93731,-8e-5 -0.76078,-1.34667 0.25177,-1.92045 1.39201,-0.7888 5.60409,-0.61956 7.18442,0.28866 l 0,0 z m 25.56246,2.73403 c 0.28417,0.33682 0.6754,1.86032 0.86939,3.38556 0.27209,2.13933 0.5709,2.82868 1.30741,3.01606 1.32742,0.33772 1.28273,2.29427 -0.0524,2.29427 -0.55391,0 -1.00711,0.22046 -1.00711,0.48991 0,0.77263 -1.51041,0.57069 -1.83213,-0.24496 -0.1805,-0.45764 -0.94832,-0.73486 -2.03534,-0.73486 -1.39034,0 -1.71149,-0.17444 -1.57838,-0.85734 0.1008,-0.51709 0.71499,-0.91886 1.5476,-1.01236 1.35687,-0.15237 1.38047,-0.21309 1.38047,-3.55185 0,-3.31786 0.35496,-4.02359 1.40048,-2.78443 z"
       id="path3429"
       inkscape:connector-curvature="0" /><flowRoot
       xml:space="preserve"
       id="flowRoot4199"
       style="fill:black;stroke:none;stroke-opacity:1;stroke-width:1px;stroke-linejoin:miter;stroke-linecap:butt;fill-opacity:1;font-family:Simpsonfont;font-style:normal;font-weight:bold;font-size:20px;line-height:125%;letter-spacing:0px;word-spacing:0px;-inkscape-font-specification:Simpsonfont Bold;font-stretch:normal;font-variant:normal"><flowRegion
         id="flowRegion4201"><rect
           id="rect4203"
           width="559.57715"
           height="52.873432"
           x="59.167889"
           y="831.47937"
           style="font-size:20px" /></flowRegion><flowPara
         id="flowPara4205"></flowPara></flowRoot><text
       xml:space="preserve"
       style="font-size:40px;font-style:normal;font-variant:normal;font-weight:bold;font-stretch:normal;line-height:125%;letter-spacing:0px;word-spacing:0px;fill:#000000;fill-opacity:1;stroke:none;font-family:Simpsonfont;-inkscape-font-specification:Simpsonfont Bold"
       x="65.462341"
       y="873.65222"
       id="text4207"
       sodipodi:linespacing="125%"
       transform="matrix(0.8,0,0,-0.8,0,710)"><tspan
         sodipodi:role="line"
         id="tspan4209"
         x="65.462341"
         y="873.65222"><tspan
           style="font-size:20px"
           id="tspan4211"> </tspan></tspan></text>
<flowRoot
       xml:space="preserve"
       id="flowRoot4213"
       style="font-size:10px;font-style:normal;font-variant:normal;font-weight:bold;font-stretch:normal;line-height:125%;letter-spacing:0px;word-spacing:0px;fill:#000000;fill-opacity:1;stroke:none;font-family:Simpsonfont;-inkscape-font-specification:Simpsonfont Bold"
       transform="matrix(1.3480143,0,0,-1.2347432,-11.833527,1077.8938)"><flowRegion
         id="flowRegion4215"><rect
           id="rect4217"
           width="479.6376"
           height="41.543427"
           x="63.574005"
           y="840.29156"
           style="font-size:10px" /></flowRegion><flowPara
         id="flowPara4219"
         style="font-size:6.60217142px">Tw<flowSpan
   style="font-size:6.20089579px"
   id="flowSpan4247">o dimensional &quot;Voice Fingerprints&quot; of Simpsons characters From 192 Episodes across 10 seasons.</flowSpan></flowPara><flowPara
         id="flowPara4221"
         style="font-size:6.20089579px">A larger dot indicates that The character had more total lines.</flowPara><flowPara
         id="flowPara4241"
         style="font-size:6.20089579px">Characters that are farther apart have more dissimilar voices.</flowPara><flowPara
         style="font-size:6.20089579px"
         id="flowPara4245">Originally From vikParuchuri.Com .</flowPara></flowRoot></g></svg>