<?xml version="1.0" encoding="UTF-8" standalone="no"?>
<!-- Created with Inkscape (http://www.inkscape.org/) -->

<svg
   xmlns:dc="http://purl.org/dc/elements/1.1/"
   xmlns:cc="http://creativecommons.org/ns#"
   xmlns:rdf="http://www.w3.org/1999/02/22-rdf-syntax-ns#"
   xmlns:svg="http://www.w3.org/2000/svg"
   xmlns="http://www.w3.org/2000/svg"
   xmlns:sodipodi="http://sodipodi.sourceforge.net/DTD/sodipodi-0.dtd"
   xmlns:inkscape="http://www.inkscape.org/namespaces/inkscape"
   id="svg3055"
   version="1.1"
   inkscape:version="0.48.3.1 r9886"
   width="522.5"
   height="617.5"
   xml:space="preserve"
   sodipodi:docname="simpsons_sentiments.eps"><metadata
     id="metadata3061"><rdf:RDF><cc:Work
         rdf:about=""><dc:format>image/svg+xml</dc:format><dc:type
           rdf:resource="http://purl.org/dc/dcmitype/StillImage" /><dc:title></dc:title></cc:Work></rdf:RDF></metadata><defs
     id="defs3059"><clipPath
       clipPathUnits="userSpaceOnUse"
       id="clipPath3073"><path
         d="m 51.6992,4349.2 3182.9008,0 0,159.1 -3182.9008,0 0,-159.1 z"
         id="path3075" /></clipPath><clipPath
       clipPathUnits="userSpaceOnUse"
       id="clipPath3099"><path
         d="m 51.6992,643.5 3182.9008,0 0,3658.2 -3182.9008,0 0,-3658.2 z"
         id="path3101" /></clipPath><clipPath
       clipPathUnits="userSpaceOnUse"
       id="clipPath3269"><path
         d="m 0,0 4180,0 0,4935 L 0,4935 0,0 z"
         id="path3271" /></clipPath><clipPath
       clipPathUnits="userSpaceOnUse"
       id="clipPath3366"><rect
         style="fill:#ffffff;fill-opacity:1;fill-rule:nonzero;stroke:none"
         id="rect3368"
         width="186.3029"
         height="113.46639"
         x="439.992"
         y="-550.98096" /></clipPath><clipPath
       clipPathUnits="userSpaceOnUse"
       id="clipPath3411"><rect
         style="fill:#ffffff;fill-opacity:1;fill-rule:nonzero;stroke:none"
         id="rect3413"
         width="199.68105"
         height="127.34001"
         x="504.40524"
         y="-505.89166"
         transform="scale(1,-1)" /></clipPath><clipPath
       clipPathUnits="userSpaceOnUse"
       id="clipPath3411-6"><rect
         style="fill:#ffffff;fill-opacity:1;fill-rule:nonzero;stroke:none"
         id="rect3413-6"
         width="199.68105"
         height="127.34001"
         x="504.40524"
         y="-505.89166"
         transform="scale(1,-1)" /></clipPath><clipPath
       clipPathUnits="userSpaceOnUse"
       id="clipPath5809"><rect
         style="fill:#ffffff;fill-opacity:1;fill-rule:nonzero;stroke:none"
         id="rect5811"
         width="275.49048"
         height="135.76329"
         x="385.48846"
         y="-519.26978"
         transform="scale(1,-1)" /></clipPath></defs><sodipodi:namedview
     pagecolor="#ffffff"
     bordercolor="#666666"
     borderopacity="1"
     objecttolerance="10"
     gridtolerance="10"
     guidetolerance="10"
     inkscape:pageopacity="0"
     inkscape:pageshadow="2"
     inkscape:window-width="1855"
     inkscape:window-height="1176"
     id="namedview3057"
     showgrid="false"
     inkscape:zoom="3.2291498"
     inkscape:cx="724.75225"
     inkscape:cy="480.95645"
     inkscape:window-x="65"
     inkscape:window-y="24"
     inkscape:window-maximized="1"
     inkscape:current-layer="g3063" /><g
     id="g3063"
     inkscape:groupmode="layer"
     inkscape:label="ink_ext_XXXXXX"
     transform="matrix(1.25,0,0,-1.25,0,617.5)"><g
       id="g3065"
       transform="scale(0.1,0.1)"><path
         d="m 0,0 4185,0 0,4935 L 0,4935 0,0 z"
         style="fill:#ffffff;fill-opacity:1;fill-rule:nonzero;stroke:none"
         id="path3067" /><g
         id="g3069"><g
           id="g3071"
           clip-path="url(#clipPath3073)"><path
             d="m 51.6992,4349.2 353.699,0 0,159.102 -353.699,0 0,-159.102 z"
             style="fill:#d32f28;fill-opacity:1;fill-rule:nonzero;stroke:none"
             id="path3077" /><path
             d="m 405.301,4349.2 353.699,0 0,159.102 -353.699,0 0,-159.102 z"
             style="fill:#ef6d43;fill-opacity:1;fill-rule:nonzero;stroke:none"
             id="path3079" /><path
             d="m 759,4349.2 353.699,0 0,159.102 -353.699,0 0,-159.102 z"
             style="fill:#f7af60;fill-opacity:1;fill-rule:nonzero;stroke:none"
             id="path3081" /><path
             d="m 1112.6,4349.2 353.699,0 0,159.102 -353.699,0 0,-159.102 z"
             style="fill:#f7e18a;fill-opacity:1;fill-rule:nonzero;stroke:none"
             id="path3083" /><path
             d="m 1466.3,4349.2 353.699,0 0,159.102 -353.699,0 0,-159.102 z"
             style="fill:#f9ffbe;fill-opacity:1;fill-rule:nonzero;stroke:none"
             id="path3085" /><path
             d="m 1820,4349.2 353.699,0 0,159.102 -353.699,0 0,-159.102 z"
             style="fill:#d1f08a;fill-opacity:1;fill-rule:nonzero;stroke:none"
             id="path3087" /><path
             d="m 2173.6,4349.2 353.699,0 0,159.102 -353.699,0 0,-159.102 z"
             style="fill:#9dda68;fill-opacity:1;fill-rule:nonzero;stroke:none"
             id="path3089" /><path
             d="m 2527.3,4349.2 353.699,0 0,159.102 -353.699,0 0,-159.102 z"
             style="fill:#5cbe61;fill-opacity:1;fill-rule:nonzero;stroke:none"
             id="path3091" /><path
             d="m 2880.9,4349.2 353.703,0 0,159.102 -353.703,0 0,-159.102 z"
             style="fill:#00994f;fill-opacity:1;fill-rule:nonzero;stroke:none"
             id="path3093" /></g></g><g
         id="g3095"><g
           id="g3097"
           clip-path="url(#clipPath3099)"><path
             d="m 51.6992,643.5 353.699,0 0,406.5 -353.699,0 0,-406.5 z"
             style="fill:#d1f08a;fill-opacity:1;fill-rule:nonzero;stroke:none"
             id="path3103" /><path
             d="m 51.6992,1050 353.699,0 0,406.5 -353.699,0 0,-406.5 z"
             style="fill:#ef6d43;fill-opacity:1;fill-rule:nonzero;stroke:none"
             id="path3105" /><path
             d="m 51.6992,1456.5 353.699,0 0,406.5 -353.699,0 0,-406.5 z"
             style="fill:#f7e18a;fill-opacity:1;fill-rule:nonzero;stroke:none"
             id="path3107" /><path
             d="m 51.6992,1862.9 353.699,0 0,406.5 -353.699,0 0,-406.5 z"
             style="fill:#5cbe61;fill-opacity:1;fill-rule:nonzero;stroke:none"
             id="path3109" /><path
             d="m 51.6992,2269.4 353.699,0 0,406.5 -353.699,0 0,-406.5 z"
             style="fill:#f7e18a;fill-opacity:1;fill-rule:nonzero;stroke:none"
             id="path3111" /><path
             d="m 51.6992,2675.8 353.699,0 0,406.5 -353.699,0 0,-406.5 z"
             style="fill:#d1f08a;fill-opacity:1;fill-rule:nonzero;stroke:none"
             id="path3113" /><path
             d="m 51.6992,3082.3 353.699,0 0,406.5 -353.699,0 0,-406.5 z"
             style="fill:#9dda68;fill-opacity:1;fill-rule:nonzero;stroke:none"
             id="path3115" /><path
             d="m 51.6992,3488.7 353.699,0 0,406.5 -353.699,0 0,-406.5 z"
             style="fill:#f7e18a;fill-opacity:1;fill-rule:nonzero;stroke:none"
             id="path3117" /><path
             d="m 51.6992,3895.2 353.699,0 0,406.5 -353.699,0 0,-406.5 z"
             style="fill:#f7e18a;fill-opacity:1;fill-rule:nonzero;stroke:none"
             id="path3119" /><path
             d="m 405.301,643.5 353.699,0 0,406.5 -353.699,0 0,-406.5 z"
             style="fill:#00994f;fill-opacity:1;fill-rule:nonzero;stroke:none"
             id="path3121" /><path
             d="m 405.301,1050 353.699,0 0,406.5 -353.699,0 0,-406.5 z"
             style="fill:#f9ffbe;fill-opacity:1;fill-rule:nonzero;stroke:none"
             id="path3123" /><path
             d="m 405.301,1456.5 353.699,0 0,406.5 -353.699,0 0,-406.5 z"
             style="fill:#f7af60;fill-opacity:1;fill-rule:nonzero;stroke:none"
             id="path3125" /><path
             d="m 405.301,1862.9 353.699,0 0,406.5 -353.699,0 0,-406.5 z"
             style="fill:#d1f08a;fill-opacity:1;fill-rule:nonzero;stroke:none"
             id="path3127" /><path
             d="m 405.301,2269.4 353.699,0 0,406.5 -353.699,0 0,-406.5 z"
             style="fill:#f9ffbe;fill-opacity:1;fill-rule:nonzero;stroke:none"
             id="path3129" /><path
             d="m 405.301,2675.8 353.699,0 0,406.5 -353.699,0 0,-406.5 z"
             style="fill:#f7af60;fill-opacity:1;fill-rule:nonzero;stroke:none"
             id="path3131" /><path
             d="m 405.301,3082.3 353.699,0 0,406.5 -353.699,0 0,-406.5 z"
             style="fill:#f9ffbe;fill-opacity:1;fill-rule:nonzero;stroke:none"
             id="path3133" /><path
             d="m 405.301,3488.7 353.699,0 0,406.5 -353.699,0 0,-406.5 z"
             style="fill:#f9ffbe;fill-opacity:1;fill-rule:nonzero;stroke:none"
             id="path3135" /><path
             d="m 405.301,3895.2 353.699,0 0,406.5 -353.699,0 0,-406.5 z"
             style="fill:#f9ffbe;fill-opacity:1;fill-rule:nonzero;stroke:none"
             id="path3137" /><path
             d="m 759,643.5 353.699,0 0,406.5 -353.699,0 0,-406.5 z"
             style="fill:#f7e18a;fill-opacity:1;fill-rule:nonzero;stroke:none"
             id="path3139" /><path
             d="m 759,1050 353.699,0 0,406.5 -353.699,0 0,-406.5 z"
             style="fill:#ef6d43;fill-opacity:1;fill-rule:nonzero;stroke:none"
             id="path3141" /><path
             d="m 759,1456.5 353.699,0 0,406.5 -353.699,0 0,-406.5 z"
             style="fill:#f9ffbe;fill-opacity:1;fill-rule:nonzero;stroke:none"
             id="path3143" /><path
             d="m 759,1862.9 353.699,0 0,406.5 -353.699,0 0,-406.5 z"
             style="fill:#5cbe61;fill-opacity:1;fill-rule:nonzero;stroke:none"
             id="path3145" /><path
             d="m 759,2269.4 353.699,0 0,406.5 -353.699,0 0,-406.5 z"
             style="fill:#f7af60;fill-opacity:1;fill-rule:nonzero;stroke:none"
             id="path3147" /><path
             d="m 759,2675.8 353.699,0 0,406.5 -353.699,0 0,-406.5 z"
             style="fill:#f7e18a;fill-opacity:1;fill-rule:nonzero;stroke:none"
             id="path3149" /><path
             d="m 759,3082.3 353.699,0 0,406.5 -353.699,0 0,-406.5 z"
             style="fill:#f7e18a;fill-opacity:1;fill-rule:nonzero;stroke:none"
             id="path3151" /><path
             d="m 759,3488.7 353.699,0 0,406.5 -353.699,0 0,-406.5 z"
             style="fill:#d1f08a;fill-opacity:1;fill-rule:nonzero;stroke:none"
             id="path3153" /><path
             d="m 759,3895.2 353.699,0 0,406.5 -353.699,0 0,-406.5 z"
             style="fill:#5cbe61;fill-opacity:1;fill-rule:nonzero;stroke:none"
             id="path3155" /><path
             d="m 1112.6,643.5 353.699,0 0,406.5 -353.699,0 0,-406.5 z"
             style="fill:#d1f08a;fill-opacity:1;fill-rule:nonzero;stroke:none"
             id="path3157" /><path
             d="m 1112.6,1050 353.699,0 0,406.5 -353.699,0 0,-406.5 z"
             style="fill:#d32f28;fill-opacity:1;fill-rule:nonzero;stroke:none"
             id="path3159" /><path
             d="m 1112.6,1456.5 353.699,0 0,406.5 -353.699,0 0,-406.5 z"
             style="fill:#ef6d43;fill-opacity:1;fill-rule:nonzero;stroke:none"
             id="path3161" /><path
             d="m 1112.6,1862.9 353.699,0 0,406.5 -353.699,0 0,-406.5 z"
             style="fill:#d1f08a;fill-opacity:1;fill-rule:nonzero;stroke:none"
             id="path3163" /><path
             d="m 1112.6,2269.4 353.699,0 0,406.5 -353.699,0 0,-406.5 z"
             style="fill:#d1f08a;fill-opacity:1;fill-rule:nonzero;stroke:none"
             id="path3165" /><path
             d="m 1112.6,2675.8 353.699,0 0,406.5 -353.699,0 0,-406.5 z"
             style="fill:#f7e18a;fill-opacity:1;fill-rule:nonzero;stroke:none"
             id="path3167" /><path
             d="m 1112.6,3082.3 353.699,0 0,406.5 -353.699,0 0,-406.5 z"
             style="fill:#d1f08a;fill-opacity:1;fill-rule:nonzero;stroke:none"
             id="path3169" /><path
             d="m 1112.6,3488.7 353.699,0 0,406.5 -353.699,0 0,-406.5 z"
             style="fill:#d1f08a;fill-opacity:1;fill-rule:nonzero;stroke:none"
             id="path3171" /><path
             d="m 1112.6,3895.2 353.699,0 0,406.5 -353.699,0 0,-406.5 z"
             style="fill:#d1f08a;fill-opacity:1;fill-rule:nonzero;stroke:none"
             id="path3173" /><path
             d="m 1466.3,643.5 353.699,0 0,406.5 -353.699,0 0,-406.5 z"
             style="fill:#f7e18a;fill-opacity:1;fill-rule:nonzero;stroke:none"
             id="path3175" /><path
             d="m 1466.3,1050 353.699,0 0,406.5 -353.699,0 0,-406.5 z"
             style="fill:#9dda68;fill-opacity:1;fill-rule:nonzero;stroke:none"
             id="path3177" /><path
             d="m 1466.3,1456.5 353.699,0 0,406.5 -353.699,0 0,-406.5 z"
             style="fill:#d1f08a;fill-opacity:1;fill-rule:nonzero;stroke:none"
             id="path3179" /><path
             d="m 1466.3,1862.9 353.699,0 0,406.5 -353.699,0 0,-406.5 z"
             style="fill:#f7af60;fill-opacity:1;fill-rule:nonzero;stroke:none"
             id="path3181" /><path
             d="m 1466.3,2269.4 353.699,0 0,406.5 -353.699,0 0,-406.5 z"
             style="fill:#9dda68;fill-opacity:1;fill-rule:nonzero;stroke:none"
             id="path3183" /><path
             d="m 1466.3,2675.8 353.699,0 0,406.5 -353.699,0 0,-406.5 z"
             style="fill:#9dda68;fill-opacity:1;fill-rule:nonzero;stroke:none"
             id="path3185" /><path
             d="m 1466.3,3082.3 353.699,0 0,406.5 -353.699,0 0,-406.5 z"
             style="fill:#f7e18a;fill-opacity:1;fill-rule:nonzero;stroke:none"
             id="path3187" /><path
             d="m 1466.3,3488.7 353.699,0 0,406.5 -353.699,0 0,-406.5 z"
             style="fill:#ef6d43;fill-opacity:1;fill-rule:nonzero;stroke:none"
             id="path3189" /><path
             d="m 1466.3,3895.2 353.699,0 0,406.5 -353.699,0 0,-406.5 z"
             style="fill:#9dda68;fill-opacity:1;fill-rule:nonzero;stroke:none"
             id="path3191" /><path
             d="m 1820,643.5 353.699,0 0,406.5 -353.699,0 0,-406.5 z"
             style="fill:#f9ffbe;fill-opacity:1;fill-rule:nonzero;stroke:none"
             id="path3193" /><path
             d="m 1820,1050 353.699,0 0,406.5 -353.699,0 0,-406.5 z"
             style="fill:#d32f28;fill-opacity:1;fill-rule:nonzero;stroke:none"
             id="path3195" /><path
             d="m 1820,1456.5 353.699,0 0,406.5 -353.699,0 0,-406.5 z"
             style="fill:#f9ffbe;fill-opacity:1;fill-rule:nonzero;stroke:none"
             id="path3197" /><path
             d="m 1820,1862.9 353.699,0 0,406.5 -353.699,0 0,-406.5 z"
             style="fill:#9dda68;fill-opacity:1;fill-rule:nonzero;stroke:none"
             id="path3199" /><path
             d="m 1820,2269.4 353.699,0 0,406.5 -353.699,0 0,-406.5 z"
             style="fill:#f9ffbe;fill-opacity:1;fill-rule:nonzero;stroke:none"
             id="path3201" /><path
             d="m 1820,2675.8 353.699,0 0,406.5 -353.699,0 0,-406.5 z"
             style="fill:#f9ffbe;fill-opacity:1;fill-rule:nonzero;stroke:none"
             id="path3203" /><path
             d="m 1820,3082.3 353.699,0 0,406.5 -353.699,0 0,-406.5 z"
             style="fill:#f9ffbe;fill-opacity:1;fill-rule:nonzero;stroke:none"
             id="path3205" /><path
             d="m 1820,3488.7 353.699,0 0,406.5 -353.699,0 0,-406.5 z"
             style="fill:#9dda68;fill-opacity:1;fill-rule:nonzero;stroke:none"
             id="path3207" /><path
             d="m 1820,3895.2 353.699,0 0,406.5 -353.699,0 0,-406.5 z"
             style="fill:#f9ffbe;fill-opacity:1;fill-rule:nonzero;stroke:none"
             id="path3209" /><path
             d="m 2173.6,643.5 353.699,0 0,406.5 -353.699,0 0,-406.5 z"
             style="fill:#d1f08a;fill-opacity:1;fill-rule:nonzero;stroke:none"
             id="path3211" /><path
             d="m 2173.6,1050 353.699,0 0,406.5 -353.699,0 0,-406.5 z"
             style="fill:#f9ffbe;fill-opacity:1;fill-rule:nonzero;stroke:none"
             id="path3213" /><path
             d="m 2173.6,1456.5 353.699,0 0,406.5 -353.699,0 0,-406.5 z"
             style="fill:#f7e18a;fill-opacity:1;fill-rule:nonzero;stroke:none"
             id="path3215" /><path
             d="m 2173.6,1862.9 353.699,0 0,406.5 -353.699,0 0,-406.5 z"
             style="fill:#00994f;fill-opacity:1;fill-rule:nonzero;stroke:none"
             id="path3217" /><path
             d="m 2173.6,2269.4 353.699,0 0,406.5 -353.699,0 0,-406.5 z"
             style="fill:#9dda68;fill-opacity:1;fill-rule:nonzero;stroke:none"
             id="path3219" /><path
             d="m 2173.6,2675.8 353.699,0 0,406.5 -353.699,0 0,-406.5 z"
             style="fill:#f7e18a;fill-opacity:1;fill-rule:nonzero;stroke:none"
             id="path3221" /><path
             d="m 2173.6,3082.3 353.699,0 0,406.5 -353.699,0 0,-406.5 z"
             style="fill:#f9ffbe;fill-opacity:1;fill-rule:nonzero;stroke:none"
             id="path3223" /><path
             d="m 2173.6,3488.7 353.699,0 0,406.5 -353.699,0 0,-406.5 z"
             style="fill:#ef6d43;fill-opacity:1;fill-rule:nonzero;stroke:none"
             id="path3225" /><path
             d="m 2173.6,3895.2 353.699,0 0,406.5 -353.699,0 0,-406.5 z"
             style="fill:#f9ffbe;fill-opacity:1;fill-rule:nonzero;stroke:none"
             id="path3227" /><path
             d="m 2527.3,643.5 353.699,0 0,406.5 -353.699,0 0,-406.5 z"
             style="fill:#ef6d43;fill-opacity:1;fill-rule:nonzero;stroke:none"
             id="path3229" /><path
             d="m 2527.3,1050 353.699,0 0,406.5 -353.699,0 0,-406.5 z"
             style="fill:#d1f08a;fill-opacity:1;fill-rule:nonzero;stroke:none"
             id="path3231" /><path
             d="m 2527.3,1456.5 353.699,0 0,406.5 -353.699,0 0,-406.5 z"
             style="fill:#f7e18a;fill-opacity:1;fill-rule:nonzero;stroke:none"
             id="path3233" /><path
             d="m 2527.3,1862.9 353.699,0 0,406.5 -353.699,0 0,-406.5 z"
             style="fill:#d1f08a;fill-opacity:1;fill-rule:nonzero;stroke:none"
             id="path3235" /><path
             d="m 2527.3,2269.4 353.699,0 0,406.5 -353.699,0 0,-406.5 z"
             style="fill:#f7af60;fill-opacity:1;fill-rule:nonzero;stroke:none"
             id="path3237" /><path
             d="m 2527.3,2675.8 353.699,0 0,406.5 -353.699,0 0,-406.5 z"
             style="fill:#5cbe61;fill-opacity:1;fill-rule:nonzero;stroke:none"
             id="path3239" /><path
             d="m 2527.3,3082.3 353.699,0 0,406.5 -353.699,0 0,-406.5 z"
             style="fill:#f9ffbe;fill-opacity:1;fill-rule:nonzero;stroke:none"
             id="path3241" /><path
             d="m 2527.3,3488.7 353.699,0 0,406.5 -353.699,0 0,-406.5 z"
             style="fill:#d1f08a;fill-opacity:1;fill-rule:nonzero;stroke:none"
             id="path3243" /><path
             d="m 2527.3,3895.2 353.699,0 0,406.5 -353.699,0 0,-406.5 z"
             style="fill:#d1f08a;fill-opacity:1;fill-rule:nonzero;stroke:none"
             id="path3245" /><path
             d="m 2880.9,643.5 353.703,0 0,406.5 -353.703,0 0,-406.5 z"
             style="fill:#ef6d43;fill-opacity:1;fill-rule:nonzero;stroke:none"
             id="path3247" /><path
             d="m 2880.9,1050 353.703,0 0,406.5 -353.703,0 0,-406.5 z"
             style="fill:#d1f08a;fill-opacity:1;fill-rule:nonzero;stroke:none"
             id="path3249" /><path
             d="m 2880.9,1456.5 353.703,0 0,406.5 -353.703,0 0,-406.5 z"
             style="fill:#9dda68;fill-opacity:1;fill-rule:nonzero;stroke:none"
             id="path3251" /><path
             d="m 2880.9,1862.9 353.703,0 0,406.5 -353.703,0 0,-406.5 z"
             style="fill:#d1f08a;fill-opacity:1;fill-rule:nonzero;stroke:none"
             id="path3253" /><path
             d="m 2880.9,2269.4 353.703,0 0,406.5 -353.703,0 0,-406.5 z"
             style="fill:#d1f08a;fill-opacity:1;fill-rule:nonzero;stroke:none"
             id="path3255" /><path
             d="m 2880.9,2675.8 353.703,0 0,406.5 -353.703,0 0,-406.5 z"
             style="fill:#d32f28;fill-opacity:1;fill-rule:nonzero;stroke:none"
             id="path3257" /><path
             d="m 2880.9,3082.3 353.703,0 0,406.5 -353.703,0 0,-406.5 z"
             style="fill:#d1f08a;fill-opacity:1;fill-rule:nonzero;stroke:none"
             id="path3259" /><path
             d="m 2880.9,3488.7 353.703,0 0,406.5 -353.703,0 0,-406.5 z"
             style="fill:#d1f08a;fill-opacity:1;fill-rule:nonzero;stroke:none"
             id="path3261" /><path
             d="m 2880.9,3895.2 353.703,0 0,406.5 -353.703,0 0,-406.5 z"
             style="fill:#d1f08a;fill-opacity:1;fill-rule:nonzero;stroke:none"
             id="path3263" /></g></g><g
         id="g3265"><g
           id="g3267"
           clip-path="url(#clipPath3269)"><g
             id="g3273"
             transform="scale(10,10)"><text
               transform="matrix(0,1,1,0,27.5199,35.7602)"
               id="text3275"><tspan
                 style="font-size:13px;font-variant:normal;font-weight:normal;writing-mode:lr-tb;fill:#000000;fill-opacity:1;fill-rule:nonzero;stroke:none;font-family:Helvetica;-inkscape-font-specification:Helvetica"
                 x="0"
                 sodipodi:role="line"
                 id="tspan3293"
                 y="0" /></text>
<text
               transform="matrix(1,0,0,-1,328.21,80.0102)"
               id="text3295"><tspan
                 style="font-size:13px;font-variant:normal;font-weight:normal;writing-mode:lr-tb;fill:#000000;fill-opacity:1;fill-rule:nonzero;stroke:none;font-family:Helvetica;-inkscape-font-specification:Helvetica"
                 x="0"
                 y="0"
                 sodipodi:role="line"
                 id="tspan3313" /></text>
<text
               transform="matrix(1,0,0,-1,18.08,465.0898)"
               id="text3315"><tspan
                 style="fill:#000000;fill-opacity:1;fill-rule:nonzero;stroke:none;font-family:Helvetica;font-variant:normal;font-weight:bold;font-size:19;writing-mode:lr;-inkscape-font-specification:Helvetica-Bold"
                 x="0 12.673 17.955 34.846 46.455 57.019 68.628 80.237 90.801 96.083 109.801 121.41 131.974 139.365 149.929 160.493 166.82 177.384 184.775 190.057 202.73 213.294 224.903 231.23 236.512 253.403 263.967 275.576 281.903"
                 y="0"
                 sodipodi:role="line"
                 id="tspan3317">Simpsons Character Sentiments</tspan></text>
</g></g></g></g><path
       style="fill:#ffffff;fill-opacity:1;fill-rule:nonzero;stroke:none"
       d=""
       id="path5815"
       inkscape:connector-curvature="0"
       transform="matrix(0.8,0,0,-0.8,0,494)" /><path
       style="fill:#ffffff;fill-opacity:1;fill-rule:nonzero;stroke:none"
       d=""
       id="path5817"
       inkscape:connector-curvature="0" /><path
       inkscape:connector-curvature="0"
       id="path5869"
       d="m 569.46882,207.658 c 3.10554,4.37109 2.78852,-3.34136 0,0 z m 55.2,1.1749 c 2.15401,3.22399 1.88532,-3.11471 0,0 z m -54.2,27.78666 c -4.02585,5.18132 3.94655,1.21957 0,0 z m 39.4,58.61334 c 2.45317,2.57215 0.25277,-2.7566 0,0 z m -1.84404,23.6 c 0.58699,4.65212 0.34728,-5.01296 0,0 z m -44.40596,-0.68334 c -2.38802,8.03139 7.21617,0.004 0,0 z m -40.88308,11.19743 c -1.04187,13.50641 6.82611,-3.36156 0,0 z m 87.59624,16.43869 c 3.07433,3.52875 0.5604,1.68512 0.9444,5.44726 5.76113,-1.00902 0.22664,-8.88391 -0.9444,-5.44726 z m -92.86316,9.84722 c 3.23102,4.83598 2.82799,-4.67207 0,0 z m -13.8318,11.6 c 3.13726,5.37586 0.96217,-5.41935 0,0 z m 109.4318,1.6 c 2.45317,2.57215 0.25277,-2.7566 0,0 z m -114.2893,6.8 c 0.2681,4.39434 2.3701,-4.14481 0,0 z m 108.48174,18.78914 c -3.81449,8.69546 6.24486,-6.04637 0,0 z m -77.60911,4.16086 c 3.57252,4.35718 0.61753,-3.30723 0,0 z m 122.21667,2.42143 c 2.69158,4.91101 3.40859,-5.07918 0,0 z m -158.4,-0.12421 c -4.7288,5.69623 5.21572,0.1496 0,0 z m 5.36585,9.56178 c 0.24545,5.23377 2.63195,-4.22913 0,0 z m 70.0551,20.191 c -8.71276,15.14231 17.26063,5.90552 23.82001,14.91522 7.13961,-9.50091 -20.52222,-29.61771 -23.82001,-14.91522 z m -50.62095,-4.26357 c 6.80458,6.32192 5.17114,-1.18176 0,0 z m 34.27868,3.06357 c -8.39865,6.95593 5.11504,20.51812 7.23044,8.12617 -2.72156,-1.55119 -3.4403,-12.65567 -7.23044,-8.12617 z m 57.9193,1.99393 c -8.46946,2.90522 -13.85551,2.07225 -12.94798,13.08342 -8.2279,49.46721 36.27783,-20.28768 12.94798,-13.08342 z m 43.53536,8.33941 c -2.38371,5.62926 3.13242,-1.36548 0,0 z m -105.33334,7.07168 c -10.57113,0.28384 4.13363,8.93395 3.18392,-0.2652 -0.7102,-0.62272 -3.0207,-1.39667 -3.18392,0.2652 z m -12.8,12.82008 c -9.01545,12.77461 8.30258,-3.74083 0,0 z m 11.2,0.38715 c -0.85867,5.50968 8.73335,-1.85432 0,0 z m 108.68862,2.34818 c 9.06124,5.41161 -4.32832,-4.3011 0,0 z m -116.68862,0.0396 c -2.10754,2.92684 4.7149,-2.11611 0,0 z m 107.2,6.66995 c 1.89345,7.46838 9.54999,8.03015 0,0 z m -19,1.10467 c -6.5556,6.02191 7.67745,-0.0825 0,0 z m -2.30532,3.10804 c -416.64233,-315.54373 -208.32117,-157.77186 0,0 z m 12.10532,9.91734 c 2.45317,2.57215 0.25277,-2.7566 0,0 z m -71.26785,1.93713 c -18.87631,9.76784 12.26775,28.74021 14.06785,8.4912 0.84867,-7.32579 -8.16793,-11.60032 -14.06785,-8.4912 z m 9.91779,7.07448 c -3.70142,7.58942 -5.52867,-6.42607 0,0 z m -28.85411,-5.79127 c 6.46378,5.1049 19.25681,0.47181 4.60196,0.37324 -1.16043,0.7038 -7.29343,-3.05455 -4.60196,-0.37324 z m -4.73583,1.61016 c -12.57342,14.20803 19.61959,20.39609 14.53823,3.3309 -4.85153,-0.564 -10.14985,-3.83991 -14.53823,-3.3309 z m 7.14023,5.36908 c -3.26731,6.0379 -5.6666,-4.9598 0,0 z m 88.99977,-5.07448 c 3.2906,3.32008 4.56046,-4.15002 0,0 z m -94.4,17.15091 c 3.42585,6.84878 7.16042,19.06605 16.13798,17.11045 -7.60264,-1.56831 -9.6973,-20.99761 -16.13798,-17.11045 z m 56,24.52399 c 0.97339,3.7936 1.59011,-3.98028 0,0 z m -48.4,7.6 c -3.85702,3.11894 6.5495,-2.16725 0,0 z m 32.80806,0.0131 c 3.15574,1.79259 1.63962,-2.97471 0,0 z"
       style="fill:#faeff0"
       sodipodi:nodetypes="ccccccccccccccccccccccccccccccccccccccccccccccccccccccccccccccccccccccccccccccccccccccccccc" /><path
       inkscape:connector-curvature="0"
       id="path5867"
       d="m 511.66882,206.16272 c 4.97823,0.7936 0.062,-1.38417 0,0 z m 48.76674,223.21289 c -2.79951,6.41597 6.5716,11.43258 5.59619,0.55355 l -2.52632,-0.5899 -3.06987,0.0363 z m 1.83326,12.14805 c -7.70076,-0.68542 -7.40572,9.56023 -3.29116,9.51737 -15.78877,-0.11927 5.81231,19.80689 -0.47384,6.76085 6.50645,-7.67376 34.66692,2.67144 21.99484,13.93165 -11.53378,-0.1073 -20.06822,12.23739 -33.22525,8.94484 -4.55088,10.04379 16.15241,6.6394 21.14313,1.96095 9.56018,0.58511 21.91751,15.89258 19.79346,-3.78191 7.10662,-7.30868 4.08956,-24.51839 -0.85489,-33.79227 -7.56997,-3.97226 -16.74115,-4.4178 -25.08629,-3.54148 z m 74.8,0.0995 c -13.74591,1.21321 -20.39703,15.68288 -22.79138,26.82014 8.02982,2.30434 14.44218,-11.02011 20.20342,2.24364 0.34667,8.16409 19.49794,20.21266 13.552,5.72501 -7.0071,-7.66999 -2.16163,-12.53801 4.24092,-4.17506 4.40013,8.59804 18.62483,3.13963 8.01444,-3.66622 -5.49104,-3.1464 -14.06792,-13.85509 -1.78638,-7.88074 11.99564,4.72051 11.1476,-7.88506 0.10614,-9.01343 -8.75608,-1.34782 -11.2211,-12.86281 -21.53916,-10.05334 z m -6,9.18585 c 10.46495,9.27365 -2.55117,4.96909 -0.8,-1.5761 l 0.8,1.5761 0,0 z m -36,23.52221 c -0.16356,8.18761 10.44139,6.80687 2.30121,11.75786 7.857,7.84099 9.60024,-18.48418 -2.30121,-11.75786 z m -12.88761,19.90169 c -2.53887,14.16796 -18.9103,8.87767 -25.19738,5.67857 -6.33222,4.37425 -13.64241,4.39947 -5.53848,12.48941 4.63883,14.70613 27.03879,13.63138 34.20254,2.25299 1.24007,-3.67137 6.45056,-29.81212 -3.46668,-20.42097 z"
       style="fill:#fad322" /><path
       inkscape:connector-curvature="0"
       id="path5865"
       d="m 535.06882,211.13848 c 2.3476,4.63202 1.72315,-2.13172 0,0 z m -15,15.83012 c -7.68039,9.95926 -1.1529,28.53279 -1.45277,41.74167 2.45495,23.72816 7.54762,47.06263 12.15045,70.431 13.71112,-6.83964 29.83903,-3.45072 44.63669,-4.79857 12.24978,1.57421 28.06214,-1.33619 23.85531,-17.5098 0.87128,-28.95918 6.38596,-57.70867 6.12683,-86.65638 -8.64832,-2.75815 -33.44763,-10.05845 -30.49765,6.04184 -1.33659,29.59164 -1.25338,59.49939 -6.4456,88.71933 -4.2633,3.06736 -29.8389,9.04662 -15.8395,-2.20998 4.57944,-17.57976 -5.41709,-35.02456 -5.85552,-52.72428 -3.85624,-13.34501 1.99529,-32.73858 -5.51769,-42.80763 -7.02907,-0.55929 -14.12011,-0.5593 -21.16055,-0.2272 z m 43.8,95.51152 c 1.62644,1.7557 1.81124,-2.67702 0,0 z m 5.66316,103.61944 c 0.73911,2.99421 0.34195,-3.47609 0,0 z m -49.13683,0.6926 c 0.79206,3.24816 2.28631,-3.52569 0,0 z m 32.17162,1.84074 c -2.69673,3.46624 6.24676,-4.543 0,0 z m 64.09474,-0.19119 c -15.37824,2.93614 8.27885,4.91089 0,0 z m -57.43269,0.55119 c -4.06693,8.25762 7.7426,-6.0698 5.98798,3.8756 -0.18233,9.65401 -8.89294,-3.61649 -1.75238,5.69962 4.47957,-5.27902 6.76402,-14.27922 -4.2356,-9.57522 z m 47.70986,2.82518 c -12.24397,3.88708 6.18346,0.7558 2.70703,-0.25196 l -2.70703,0.25196 0,0 z m -7.61013,1.54121 c -4.08769,6.03259 5.96097,-2.02757 0,0 z m -7.34971,2.27361 c 3.12427,7.30756 4.03995,2.41647 0,0 z m -17.11002,4.12982 c 4.97823,0.7936 0.062,-1.38417 0,0 z m 21.95596,1.47018 c 0.58699,4.65212 0.34728,-5.01296 0,0 z m 19.6612,0.21278 c 0.41555,9.91471 1.91056,-5.18881 0,0 z m -23.21296,1.38722 c 0.70731,7.49647 1.73013,-7.28877 0,0 z m 3.6276,2.8 c -4.49595,8.20095 3.45547,-3.72516 0,0 l 0,0 z m -5.62228,0.55238 c 6.10342,3.44333 -2.75648,-4.78885 0,0 z m 24.59048,1.81948 c 3.48588,5.12849 3.12051,-1.05692 0,0 z m -21.81503,3.29227 c 2.0609,3.76401 -0.44864,-4.26878 0,0 z m 22.32573,1.13587 c 0.2681,4.39434 2.37011,-4.14481 0,0 z m -18.41712,2.35538 c 5.08256,10.00858 2.38487,-4.55708 0,0 z m 17.55969,1.67559 c -2.79466,6.05912 5.23527,-6.14045 0,0 z m -3.28617,3.62225 c -0.80759,4.17954 2.52944,-3.10985 0,0 z m 40.8329,0.74678 c 2.45317,2.57215 0.25277,-2.7566 0,0 z m -103.91759,0.66666 c 1.10726,2.5427 2.1667,-2.11883 0,0 z m 55.58075,1.4 c 0.73911,2.99421 0.34195,-3.47609 0,0 z m 53.8035,0.76853 c 1.48791,3.93181 1.26888,-2.94541 0,0 z m -40.26666,9.16481 c 2.15401,3.22399 1.88532,-3.11471 0,0 z m 4.45143,2.1655 c -0.51201,3.159 2.30761,-3.4091 0,0 z m 27.23098,0.36783 c 3.80573,2.46551 1.11922,-2.69747 0,0 z m -104.48241,10.56871 c 4.82171,5.76694 1.53826,-0.537 0,0 z m 16.69795,1.09796 c -2.26969,3.56522 4.5498,-4.57446 0,0 z m -12.04795,3.14649 c 4.61629,0.50444 -1.51747,-1.40953 0,0 z m 9.07631,3.45351 c 0.59985,4.42279 0.59985,-4.42279 0,0 z m 20.8,0 c 0.59985,4.42279 0.59985,-4.42279 0,0 z m -2.62836,6.2 c -2.46079,3.66957 4.86778,-4.63782 0,0 z m -30.49795,3.12982 c 4.97823,0.79359 0.062,-1.38415 0,0 z m 2.6,15.77222 c 4.82171,5.76694 1.53826,-0.537 0,0 z m 12.65,5.04445 c 4.61629,0.50444 -1.51747,-1.40953 0,0 z"
       style="fill:#8e999e" /><path
       inkscape:connector-curvature="0"
       id="path5863"
       d="m 590.86882,206.96272 c 4.97823,0.7936 0.062,-1.38417 0,0 z m -84,1.6 c 4.97823,0.7936 0.062,-1.38417 0,0 z m 8,0 c 4.97823,0.7936 0.062,-1.38417 0,0 z m 21.4,4.27018 c 0.21114,2.93386 2.40128,-2.69503 0,0 z m -21.4318,15.2 c 2.37749,5.17133 0.0142,-5.11304 0,0 z m 76.8818,-1.05351 c 4.61629,0.50449 -1.51749,-1.4093 0,0 z m -17.17047,9.05351 c -0.0893,9.67307 -0.83687,-4.78384 0.09,-3.80375 l -0.0658,1.43172 -0.0242,2.37203 z m -22.52357,-1.2 c 0.58688,4.65208 0.34758,-5.01284 0,0 z m 53.71829,5.6 c 0.35011,11.35828 0.34861,-12.38055 0,0 z m -60.8,4.8 c 0.35011,11.35828 0.34861,-12.38055 0,0 z m 27.91135,-2.8 c 0.44392,5.46138 0.44392,-5.46138 0,0 z m 32.04321,9.2 c 0.59224,7.67146 0.35798,-8.44914 0,0 z m 5.43435,1.66666 c 0.73911,2.99421 0.34195,-3.47609 0,0 z m -64.62343,3.53334 c 0.44477,8.9889 0.44477,-8.9889 0,0 z m 58.34587,3.2 c 0.44392,5.46138 0.44392,-5.46138 0,0 z m -88.12244,1.26666 c 0.73922,2.99422 0.34168,-3.4761 0,0 z m 1.6,0.8 c 0.73922,2.99422 0.34168,-3.4761 0,0 z m 28.8928,4.73334 c 0.58688,4.65208 0.34758,-5.01284 0,0 z m 7.1072,-0.73334 c 0.73911,2.99421 0.34195,-3.47609 0,0 z m 49.75473,2.73334 c 0.4594,7.36308 0.4594,-7.36308 0,0 z m -31.29158,0 c 0.59985,4.42279 0.59985,-4.42279 0,0 z m -24.72457,5.2 c 0.52691,6.06816 0.32264,-6.84581 0,0 z m 55.21615,2 c 0.4594,7.36308 0.4594,-7.36308 0,0 z m -54.46193,4.4 c 0.58688,4.65208 0.34758,-5.01284 0,0 z m 53.64578,4 c 0.52691,6.06816 0.32264,-6.84581 0,0 z m -30.53858,1.66666 c 0.73911,2.99421 0.34195,-3.47609 0,0 z m -21.6,3.2 c 0.73911,2.99421 0.34195,-3.47609 0,0 z m 51.32244,2.73334 c 0.44392,5.46138 0.44392,-5.46138 0,0 z m -50.52244,0.46666 c 0.73911,2.99421 0.34195,-3.47609 0,0 z m 57.6,0.8 c 0.73911,2.99421 0.34195,-3.47609 0,0 z m -7.78891,11.13334 c 0.35011,11.35828 0.34861,-12.38055 0,0 z m -47.29986,-2.4 c 1.13291,11.22015 1.98064,0.7074 0,0 z m 1.65442,12.8 c 0.59224,7.67146 0.35798,-8.44914 0,0 z m 14.23435,-1.53334 c 0.73911,2.99421 0.34195,-3.47609 0,0 z m 30.31912,7.93334 c 2.69503,6.8291 -9.60779,17.83573 0.4262,8.4697 0.75688,-5.31845 -0.19353,-24.16354 -0.4262,-8.4697 z m -47.65829,3 c -4.00136,5.00929 6.41422,-6.06849 0,0 z m 53.33917,2.66666 c 0.73911,2.99421 0.34195,-3.47609 0,0 z m -56.8,1.6 c 0.73911,2.99421 0.34195,-3.47609 0,0 z m 40.54617,5.69915 c 9.17069,0.30322 -0.86998,-1.00518 0,0 z m -41.6,0.8 c 9.17069,0.30322 -0.86998,-1.00518 0,0 z m 25.79067,0.23419 c -2.29125,2.89328 4.44674,-2.62029 0,0 z m -31.78477,0.55439 c 6.83168,0.68905 -1.13605,-1.31212 0,0 z m -3.56523,0.7921 c 4.61627,0.50447 -1.5175,-1.40929 0,0 z m -10.34412,16.95939 c -8.79947,13.60269 1.13201,30.84877 6.21504,44.39373 4.60012,9.92793 8.91015,29.0047 16.7915,32.01381 -0.92391,-13.42638 -8.26433,-26.93797 -13.8946,-39.426 -7.44053,-11.14817 -7.74223,-30.67228 -6.80095,-39.17507 l -2.31099,2.19353 0,0 z m -15.20792,11.09412 c -2.26971,3.56524 4.54978,-4.57445 0,0 z m 99.3652,7.06666 c 0.73911,2.99421 0.34195,-3.47609 0,0 z M 498.30692,394.0329 c -0.0221,15.40745 17.19326,22.20272 27.75048,30.04178 5.62654,4.9901 30.95291,13.80035 13.92229,2.63456 -15.00745,-8.61457 -31.07327,-18.29803 -39.92581,-33.64746 -1.12425,-4.09638 -2.43483,-3.96511 -1.74696,0.97112 z m 156.11786,28.8 c 0.58699,4.65212 0.34728,-5.01296 0,0 z m -41.35596,2.02291 c -5.06437,5.04771 -20.23914,-0.31677 -18.97573,1.3303 4.24012,9.17447 28.01733,-1.89631 23.55448,-2.94932 l -2.07797,0.73573 -2.50078,0.88329 0,0 z m 41.3856,3.17709 c 0.44392,5.46138 0.44392,-5.46138 0,0 z m -36.9856,-1.16462 c 2.671,3.99542 3.09288,-1.21854 0,0 z m 34.98666,20.46389 c 4.67141,2.58211 -2.12464,-2.75135 0,0 z m -27.88871,19.70073 c -2.69674,3.46622 6.24676,-4.543 0,0 z"
       style="fill:#74858a" /><path
       inkscape:connector-curvature="0"
       id="path5861"
       d="m 587.66882,206.96272 c 4.97823,0.7936 0.062,-1.38417 0,0 z m 8,0.0489 c 11.3135,0.36049 2.4872,-0.8973 0,0 z m 11.2,-0.0489 c 4.97823,0.7936 0.062,-1.38417 0,0 z m -102.35,1.61667 c 4.61627,0.50447 -1.5175,-1.40929 0,0 z m 5.95,0.005 c 7.86067,1.00594 -0.27053,-1.36145 0,0 z m 7.6,-0.0216 c 4.97823,0.7936 0.062,-1.38418 0,0 z m -20.95389,0.99557 c 2.03085,1.59244 3.72768,-2.40202 0,0 z m 29.15389,-0.41852 c 5.15779,2.44728 4.01234,-1.41257 0,0 z m 53.25143,0.72776 c 3.0228,3.98442 -1.01328,-3.65951 0,0 z m 2.4,0.331 c -0.512,3.159 2.30761,-3.4091 0,0 z m -50.26476,0.33377 c 4.67139,2.5821 -2.12468,-2.75135 0,0 z m 8.06333,-0.35278 c 4.61627,0.50447 -1.5175,-1.40929 0,0 z m 82.9029,0.60937 c 7.7888,4.03161 -3.84797,-3.26388 0,0 z m -129.67684,0.87864 c -0.6666,5.45872 2.46446,-4.38183 0,0 z m 43.32394,-0.4345 c 2.45315,2.57214 0.25279,-2.75659 0,0 z m -41.43476,0.50142 c -1.71009,8.25994 24.12422,14.76226 18.8353,11.86247 -8.70806,-0.12781 -13.73978,-9.91146 -18.8353,-11.86247 z m 53.10142,-0.29289 c 7.9408,7.79409 3.19454,-0.56914 0,0 z m 26.49334,1.55147 c -3.48278,7.59777 4.53702,16.11402 1.10333,3.24 -1.07532,0.81858 1.22385,-6.97812 -1.10333,-3.24 z m 49.55541,3.64 c -1.99228,5.87284 3.98629,-7.0924 0,0 z m -52.54749,-0.54809 c 0.70154,13.67018 2.25966,1.39979 0,0 z m -75.81575,1.63603 c 10.88645,8.63969 5.50828,2.58711 0,0 z m 57.11099,1.17872 c 0.73911,2.99421 0.34195,-3.47609 0,0 z m 65.93684,3.82316 c -6.43271,7.42681 10.23108,-8.72684 0,0 z m -115.21357,0.48822 c 7.93731,4.86091 1.19345,-1.60778 0,0 z m 8.21357,2.95178 c 4.97823,0.7936 0.062,-1.38417 0,0 z m 17.2,0.0432 c 8.67092,0.62357 1.90002,-1.11896 0,0 z m 44.65976,0.555 c -1.6995,5.24577 0.14665,16.49156 -0.103,3.98694 -0.86358,-0.77803 3.5604,-7.10012 0.103,-3.98694 z m 37.60158,0.91402 c -11.18454,6.06726 -2.38674,26.21402 -7.06889,37.73104 -2.85171,21.5423 -3.32653,43.28831 -4.99815,64.90852 -11.3602,7.6728 -28.32407,2.64021 -41.87969,4.61975 -7.63443,0.57332 -24.63242,-0.3557 -25.77564,6.64381 10.23329,-5.46613 22.77816,-4.4112 34.46302,-5.6942 12.77251,0.019 23.98332,2.88982 36.13154,7.07206 4.21003,-36.25619 6.80744,-72.74138 8.0707,-109.24139 -4.94309,-4.70911 11.90678,-10.90772 1.05711,-6.03959 z m -91.41134,-0.69555 c 4.61627,0.50447 -1.5175,-1.40929 0,0 z m 21.6,0 c 4.61627,0.50447 -1.5175,-1.40929 0,0 z m 53.16522,0.008 c 6.83165,0.68904 -1.13599,-1.31212 0,0 z m -49.81389,3.64551 c 0.30884,26.44831 4.02486,52.74238 9.71731,78.52477 3.93593,7.47142 -5.01667,16.27524 -4.71864,19.94241 4.69313,-2.06958 14.63633,-3.28434 9.48387,-13.30285 -5.12266,-27.95204 -8.35916,-56.32769 -8.24646,-84.7636 -0.28896,-2.10754 -8.16215,-6.08377 -6.23608,-0.40073 z m 5.79867,-2.53592 c 2.085,7.72685 3.4607,0.40091 -0.72377,-0.58303 l 0.72377,0.58303 z m -35.24404,3.53592 c 0.58688,4.65208 0.34758,-5.01284 0,0 z m 96.003,5.28265 c -0.44006,7.43219 -1.15182,21.31794 0.3636,5.68235 0.32799,-2.39144 -0.29595,-15.34194 -0.3636,-5.68235 z m -96.8958,1.18401 c 0.73922,2.99422 0.34168,-3.4761 0,0 z m 37.6928,0.73334 c 0.58688,4.65208 0.34758,-5.01284 0,0 z m 20.87285,9.6 c 0.59224,7.67146 0.35798,-8.44914 0,0 z m -57.67285,-0.8 c 0.58688,4.65208 0.34758,-5.01284 0,0 z m 37.66193,1.2 c 0.4594,7.36308 0.4594,-7.36308 0,0 z m -37.66193,4.4 c 0.58688,4.65208 0.34758,-5.01284 0,0 z m 1.57036,0.4 c 0.59983,4.42277 0.59983,-4.42277 0,0 z m 36.44955,6 c 1.8097,15.87477 -0.0283,-11.15092 0,0 z m 18.89838,1.6 c 0.35011,11.35828 0.34861,-12.38055 0,0 z m 38.34364,-0.4 c 0.4594,7.36308 0.4594,-7.36308 0,0 z m -36.89158,0.8 c 0.59985,4.42279 0.59985,-4.42279 0,0 z m -57.57035,2.8 c 0.58688,4.65208 0.34758,-5.01284 0,0 z m 1.5072,0.0666 c 0.73922,2.99423 0.34168,-3.47611 0,0 z m 92.06315,5.13336 c 0.59985,4.42279 0.59985,-4.42279 0,0 z m -92.77035,2 c 0.58688,4.65208 0.34758,-5.01284 0,0 z m 55.22964,1.2 c 0.44392,5.46138 0.44392,-5.46138 0,0 z m -17.72244,-0.33334 c 0.73911,2.99421 0.34195,-3.47609 0,0 z m 55.26315,1.93334 c 0.59985,4.42279 0.59985,-4.42279 0,0 z m -92.06315,3.66666 c 0.73922,2.99422 0.34168,-3.4761 0,0 z m 53.77657,2.73334 c 0.45678,8.95786 0.43164,-8.97824 0,0 z m -16.17657,-1.93334 c 0.73911,2.99421 0.34195,-3.47609 0,0 z m 17.6928,0.73334 c 0.58699,4.65212 0.34728,-5.01296 0,0 z m -54.42964,2.8 c 0.59983,4.42277 0.59983,-4.42277 0,0 z m 1.53684,1.26666 c 0.73922,2.99422 0.34168,-3.4761 0,0 z m 88.92244,1.13334 c 0.44392,5.46138 0.44392,-5.46138 0,0 z m -52.85929,1.6 c 0.59985,4.42279 0.59985,-4.42279 0,0 z m -36.92631,2.75278 c 2.01781,8.74447 0.49974,-7.2758 0,0 z m 88.86316,1.71388 c 0.73911,2.99421 0.34195,-3.47609 0,0 z m -35.9072,2.33334 c 0.58699,4.65212 0.34728,-5.01296 0,0 z m -1.6,0.8 c 0.58699,4.65212 0.34728,-5.01296 0,0 z m -50.4928,0.0666 c 0.73922,2.99423 0.34168,-3.47611 0,0 z m 88.13858,3.13336 c 0.52691,6.06816 0.32264,-6.84581 0,0 z m -50.47543,2.8 c 0.59985,4.42279 0.59985,-4.42279 0,0 z m -36.06315,2.06666 c 0.73922,2.99422 0.34168,-3.4761 0,0 z m 48.0928,0.73334 c 0.58699,4.65212 0.34728,-5.01296 0,0 z m 37.5072,-0.73334 c 0.73911,2.99421 0.34195,-3.47609 0,0 z m -48.73685,1.93334 c 0.59985,4.42279 0.59985,-4.42279 0,0 z m 48.73685,2.06666 c 0.73911,2.99421 0.34195,-3.47609 0,0 z m -84.72719,1.13334 c 0.36242,6.39746 2.67966,3.95789 0.16865,-0.44329 l -0.16865,0.44329 z m 36.39993,2 c 1.91541,9.95218 -0.0163,-7.76926 0,0 z m 9.99041,1.2 c 0.59985,4.42279 0.59985,-4.42279 0,0 z m 37.6,3.2 c 0.59985,4.42279 0.59985,-4.42279 0,0 z m -37.21561,2 c 2.27708,3.87564 0.16169,-4.00363 0,0 z m -44.5107,3.95278 c 1.8666,5.40979 0.85566,-4.17828 0,0 z m 80.73673,3.04649 c -0.0719,7.72194 1.56612,-7.27819 0,0 z m -43.84393,1.20073 c 7.30265,7.19692 1.51688,-2.49125 0,0 z m -35.22964,2.26666 c 0.73922,2.99422 0.34168,-3.4761 0,0 z m 1.05065,2.39192 c 1.43701,5.4588 1.15569,2.24832 0.87362,-2.00055 l -0.87362,2.00055 0,0 z m 1.41251,12.34142 c 0.59983,4.42277 0.59983,-4.42277 0,0 z m 74.27368,1.6 c 0.29292,5.25484 2.08992,-0.78163 0.3092,-2.4 l -0.3092,2.4 z m -77.28992,2.82497 c -4.28466,8.46075 5.87491,-6.88887 0,0 z m 81.19485,3.74989 c 1.82883,6.19083 -0.25559,-6.63521 0,0 z m -80.38094,4.02514 c -4.00135,5.00929 6.41422,-6.06848 0,0 z m 81.27601,-0.69795 c 4.82177,5.76703 1.53821,-0.53708 0,0 z m -86.7529,5.72339 c -4.86206,4.51904 6.49722,-4.32346 0,0 z m 89.8125,0.9139 c 1.70912,4.82908 -0.16343,-5.33832 0,0 z m -95.16164,2.46066 c -2.26971,3.56524 4.54978,-4.57445 0,0 z m 7.48764,1 c 0.44392,5.46138 0.44392,-5.46138 0,0 z m -0.0296,5.2 c 0.58689,4.65208 0.34759,-5.01285 0,0 z m -16.972,2.41934 c -2.72067,5.2233 4.13184,-4.33968 0,0 z m 104.94235,4.38066 c 0.59985,4.42279 0.59985,-4.42279 0,0 z m -110.82748,4.43093 c -1.49517,5.65457 2.2398,-3.6113 0,0 z m 109.16433,4.03573 c 0.73911,2.99421 0.34195,-3.47609 0,0 z m -1.96433,7.96427 c -2.32954,7.44996 3.14639,-4.26139 0,0 z m -111.63567,0.83573 c 0.73922,2.99422 0.34168,-3.4761 0,0 z m 126.18684,-0.72017 c 4.61629,0.50449 -1.51749,-1.4093 0,0 z m 16.95,1.05351 c 6.24259,2.87038 -2.46667,-2.6801 0,0 z m -141.38211,3.2 c 0.47074,7.33869 0.44989,-7.35468 0,0 z m 29.45948,-1.66474 c -0.0253,2.51051 5.26521,-2.21632 0,0 z m 86.32263,0.0647 c -2.29125,2.89328 4.44674,-2.62029 0,0 z m 28.8,-0.57859 c 4.11447,4.72826 7.01678,3.00729 0,0 z m -147.13684,2.64525 c 0.73922,2.99422 0.34168,-3.4761 0,0 z m 30.26579,0.60257 c 6.42839,6.45384 5.57854,2.53796 0,0 z m 4.93953,-0.26923 c 1.4714,8.36146 1.59253,-1.2438 0,0 z m 78.33152,0 c -2.29125,2.89328 4.44674,-2.62029 0,0 z m -111.37618,6.8207 c 3.6981,5.45906 9.47392,10.65747 2.22544,2.07608 -0.37241,-0.39542 -3.81484,-5.13504 -2.22544,-2.07608 z m 154.63934,5.64596 c 0.73911,2.99421 0.34195,-3.47609 0,0 z m -145.87649,4.43261 c 4.67139,2.5821 -2.12468,-2.75135 0,0 z m 2.61333,-0.59722 c 4.82184,5.76712 1.53816,-0.53712 0,0 z m 0.98095,3.36093 c 7.50796,6.0913 -4.24666,-4.594 0,0 z m 3.01905,2.1387 c 4.50846,4.32627 15.60177,9.57607 4.44443,2.50208 l -2.24443,-1.46048 -2.2,-1.0416 z m 141.72631,1.39832 c 0.59985,4.42279 0.59985,-4.42279 0,0 z m -83.47631,5.34649 c 4.61629,0.50449 -1.51749,-1.4093 0,0 z m -46.18333,1.34515 c 10.52799,6.56523 0.10642,-1.60391 0,0 z m 6.33333,3.31742 c 8.67739,5.2039 13.91763,3.99069 0,0 z m 77.2,1.19094 c 3.35467,2.8189 1.15211,-2.88559 0,0 z m -6,1.5251 c 3.38433,1.72918 4.80762,-2.69347 0,0 z m -3.68024,0.68715 c -4.48896,4.32187 -1.86576,14.74815 -0.84094,2.89429 -0.96081,-0.43613 4.28147,-5.04609 0.84094,-2.89429 z m -7.11976,1.78775 c 6.01637,5.8215 -4.14658,-5.69907 0,0 z m 60.42746,3.9337 c -1.82717,11.10905 3.8503,-5.93714 0,0 z m -102.70697,1.4663 c 6.80547,10.22464 3.69082,2.88645 -0.85124,-3 l 0.85124,3 z m 69.65973,2.64597 c -3.24229,5.01362 2.58011,8.27573 0.074,-1.25713 l -0.24687,0.1436 0.17287,1.11353 2e-5,0 z m -25.19456,5.55403 c -1.46685,6.18719 4.12039,-5.56428 0,0 z m 75.09465,7.76362 c 4.5867,5.65811 -2.65943,-4.80644 0,0 z m -76.08031,0.55235 c 7.86476,2.30934 6.76377,-1.28026 0,0 z m 9.04043,3.46371 c 3.03665,6.42889 6.49684,13.36465 2.59523,2.59603 -0.009,-0.0124 -6.55679,-7.52556 -2.59523,-2.59603 z m 67.4584,0.65125 c -1.58913,5.68399 2.27206,-3.62782 0,0 z m -117.69883,2.76907 c -7.81888,2.55733 10.23975,-1.58242 0,0 z m 111.4,0.52982 c 4.97823,0.7936 0.062,-1.38417 0,0 z m -124.09667,0.90299 c 4.93591,1.33998 6.31081,-2.24757 0,0 z m -5.69767,1.75803 c 0.59653,1.87125 3.38573,-2.93351 0,0 z m 93.99434,0.32357 c 3.40644,2.90106 1.93426,-1.44951 0,0 z m -95.13962,1.68559 c 1.35292,8.03433 20.2409,17.54783 5.24424,6.8361 -2.18922,-1.94252 -3.32771,-4.67494 -5.24424,-6.8361 z m 133.2699,3.8181 c -3.97471,9.93759 2.73739,3.7422 -0.0316,-2.17191 l -0.14962,0.17869 0.18122,1.99322 z m -17.33028,-1.51606 c 4.82171,5.76694 1.53826,-0.537 0,0 z m -41.47369,3.69796 c 0.59985,4.42279 0.59985,-4.42279 0,0 z m 44.32512,4.2345 c 3.02281,3.98442 -1.01329,-3.65952 0,0 z m -43.3719,7.7655 c 0.41988,12.66972 0.41988,-12.66972 0,0 l 0,0 z m 42.01842,-1.8 c -2.46079,3.66957 4.86778,-4.63782 0,0 z m -108.08814,1.85859 c -9.38471,10.79398 7.20431,-2.74878 0,0 z m 103.99019,-0.32877 c 4.97823,0.79359 0.062,-1.38415 0,0 z m -91.95,4.01667 c 4.61629,0.50444 -1.51747,-1.40953 0,0 z m -15.64825,3.85351 c 0.5268,6.0682 0.3229,-6.84585 0,0 z m 8.16535,-1.14678 c -0.80759,4.17954 2.52944,-3.10985 0,0 z m 60.58886,6.74678 c 0.58696,4.65211 0.34735,-5.01289 0,0 z m -67.03197,0.21379 c 5.64814,4.66464 -1.97438,-4.07842 0,0 z m 66.19587,5.12078 c -1.86377,10.44198 1.59,-3.13312 0,0 z m -64.0511,0.42082 c 4.35478,10.05872 1.5787,-0.18253 0,0 z m 1.5893,8.7525 c -5.57647,9.06563 6.35128,-6.89272 0,0 z m 1.1476,1.08295 c 0.59652,1.87125 3.38575,-2.93351 0,0 z m 58.45148,2.0663 c -1.28673,8.38149 2.75739,-6.72794 0,0 z m -60.19047,3.10767 c 1.5212,3.3887 0.85724,-4.11722 0,0 z m 57.87671,3.27238 c -4.35459,9.67471 5.4109,-8.23591 0,0 z m -58.94338,4.0798 c 5.41956,7.17794 6.2813,5.31323 0,0 z m 53.6817,2.35152 c -6.65553,6.07616 8.55774,-5.79023 0,0 z m -46.9288,3.88736 c 7.7888,4.0316 -3.84798,-3.2639 0,0 z m 39.2471,-0.35587 c -3.6934,2.57371 7.74433,-2.60422 0,0 z m -3.75,1.34649 c 4.61629,0.50444 -1.51747,-1.40953 0,0 z m -31.2,0.8 c 4.61629,0.50444 -1.51747,-1.40953 0,0 z m 3.56522,0.8079 c 6.83165,0.68904 -1.136,-1.31182 0,0 z m 10.98478,0.24561 c -14.08463,0.4695 8.95482,1.36395 9.9395,-0.55266 -3.31785,0.0928 -6.62756,0.3481 -9.9395,0.55266 z"
       style="fill:#727d84" /><path
       inkscape:connector-curvature="0"
       id="path5859"
       d="m 561.66882,427.78436 c 6.85974,0.77832 0.29456,-1.2883 0,0 z m -3.41605,1.46788 c -2.72067,5.2233 4.13184,-4.33969 0,0 z m -0.46034,3.70427 c 2.71893,0.50452 1.98206,8.17072 6.25,8.41501 -3.20369,-1.91609 2.90178,-2.81368 -4.37486,-8.00182 0.0917,-0.93881 -1.74643,-1.78015 -1.87514,-0.41319 z m 8.47639,0.67639 c 1.91591,3.19613 1.27584,-2.97516 0,0 z m 0.67734,6.45354 c 11.19541,0.9537 0.70325,-2.45611 0,0 z m 7.92266,1.27628 c 4.97823,0.7936 0.062,-1.38417 0,0 z m 61.6,0 c 4.97823,0.7936 0.062,-1.38417 0,0 z m 4,0 c 4.97823,0.7936 0.062,-1.38417 0,0 z m 4.2,0.61388 c 4.37727,3.84421 4.18958,0.71086 0,0 z m -89.30057,2.42991 c -1.37289,7.69067 2.85785,-4.68449 0,0 z m 34.05394,2.37675 c 3.27007,7.05006 1.42453,22.37478 2.56496,5.5934 2.83653,-2.01064 -4.86937,-10.99593 -2.56496,-5.5934 z m 61.63065,1.04964 c 6.1823,5.61397 -1.06932,-3.45942 0,0 z m -21.37376,2.72879 c 0.82295,3.90839 1.60167,-3.76044 0,0 z m -72.21026,-0.61438 c 3.40644,2.90106 1.93426,-1.44951 0,0 z m 35.32631,1.28559 c 0.59985,4.42279 0.59985,-4.42279 0,0 z m -37.07631,0.54649 c 4.61629,0.50449 -1.51748,-1.4093 0,0 z m 103.35,0.25351 c 6.24259,2.87038 -2.46667,-2.6801 0,0 z m -28.29084,0.62338 c 1.2666,5.76112 4.17,0.12431 0,0 z m -38.046,2.24328 c 0.73911,2.99421 0.34195,-3.47609 0,0 z m -28.25383,0.89915 c 9.17069,0.30322 -0.86998,-1.00518 0,0 z m 70.19067,0.23419 c 0.21113,2.93386 2.40131,-2.69503 0,0 z m 32.85143,0.2345 c 3.0228,3.98442 -1.01328,-3.65951 0,0 z m -109.61726,0.51022 c -0.10117,4.45113 3.53874,-3.35511 0,0 z m 10.37718,-0.0312 c -7.28891,4.3866 22.40968,7.60056 11.18865,2.48646 -5.59992,0.70557 -2.72278,-2.82906 -5.99163,-3.03822 l -2.07216,0.12541 -3.12486,0.42634 0,10e-6 z m -7.67462,3.8872 c 1.63043,7.37606 -0.11801,-7.74305 0,0 z m 32.63631,-2.40072 c -4.10149,8.49246 7.9605,20.0954 11.42696,13.88776 -0.029,-5.73675 -4.53736,-15.92969 -11.42696,-13.88776 z m 23.75095,1.2 c -3.79648,4.88659 5.95132,-5.88057 0,0 z m 34.42353,-0.11508 c 6.59516,10.6309 3.63295,2.95284 0,0 z m 16.10391,1.28058 c -0.512,3.159 2.30761,-3.4091 0,0 z m -111.52512,1.0345 c 0.59985,4.42279 0.59985,-4.42279 0,0 z m 106.47369,0.55146 c 6.85974,0.77832 0.29456,-1.2883 0,0 z m -48.6329,1.10176 c -0.80759,4.17954 2.52944,-3.10985 0,0 z m 11.23856,0.73762 c 0.59662,1.87123 3.38568,-2.93352 0,0 z m -80.80566,1.2665 c -20.47467,-1.27918 -1.82073,18.57831 9.6,13.20773 8.84326,3.66775 30.81228,-15.41677 11.73463,-13.02348 -7.10235,-0.23016 -14.2341,-0.62135 -21.33463,-0.18425 z m 8.32288,10.34266 c -3.71388,-4.80383 -1.28178,-9.51096 0,0 z m -4.43803,-2.6 c 4.38196,9.59028 -8.78709,-11.8648 0,0 z m 9.73985,-1.11248 c -5.42621,11.58862 0.7287,-7.85219 0,-10e-6 l 0,10e-6 z m 4.45432,-0.24179 c -5.78682,9.85782 11.77041,-8.17886 1.6589,3.18823 -7.12197,3.58418 -6.96602,0.75269 -0.8589,-6.03396 l 0.13338,0.8295 -0.93338,2.01623 0,0 z m -15.44776,5.04529 c -10.58357,-6.39627 -6.0978,-9.05081 0,0 z m 45.09505,-9.49102 c 0.59985,4.42279 0.59985,-4.42279 0,0 z m 65.47369,-1.36359 c 5.14933,5.55269 9.81934,6.92362 0.99162,0.49324 l -0.99162,-0.49324 0,0 z m -74.74857,4.32909 c -0.51201,3.159 2.30761,-3.4091 0,0 z m -11.69449,3.2345 c -5.81431,5.81723 13.08794,-9.17817 10e-5,0 l -10e-5,0 z m 7.84306,-1.67018 c 4.97823,0.79359 0.062,-1.38415 0,0 z m 13.86316,0.73685 c 0.73911,2.9942 0.34194,-3.47611 0,0 z m 53.53684,1.13333 c 3.86893,5.78703 -2.05683,-5.6865 0,0 z m 5.6,-1.29796 c 4.82171,5.76694 1.53826,-0.537 0,0 z m -56,0.81044 c 6.91255,2.36397 5.79488,-1.28007 0,0 z m -1.6,1.64031 c 1.86682,5.40987 0.8555,-4.17835 0,0 z m -5.99434,1.23805 c 0.59663,1.87122 3.38567,-2.93352 0,0 z m 60.39434,1.60916 c 3.86893,5.78703 -2.05683,-5.6865 0,0 z m -59.2,5.22511 c 1.02751,17.97075 13.65676,-8.16475 0.26488,-5.20861 -0.36856,1.71559 -0.22067,3.47229 -0.26488,5.20861 z m 14.5856,-2.02511 c 0.44392,5.46138 0.44392,-5.46138 0,0 z m -53.9856,-1.03541 c 7.12989,0.64396 1.50814,-1.16013 0,0 z m 46.66316,0.3882 c 1.48054,6.94541 2.34277,9.5e-4 0,0 l 0,0 z m -8.71518,4.39157 c -0.83018,5.27362 -3.58824,8.61406 0.55636,2.64018 0.0814,-2.62927 -0.61542,-10.32912 -0.55636,-2.64018 z m 53.85202,-2.14436 c 6.01637,5.8215 -4.14658,-5.69907 0,0 z m -41.73334,0.36481 c 1.59281,2.88724 1.11506,-3.54241 0,0 z m -55.4035,0.90186 c 0.73911,2.9942 0.34194,-3.47611 0,0 z m 22.98684,-0.72018 c 4.61629,0.50444 -1.51747,-1.40953 0,0 z m -5.92601,2.85351 c -4.00136,5.00929 6.41422,-6.06848 0,0 z m 16.57604,0.16146 c 3.32003,6.53408 6.46364,5.55367 0,0 z m 66.89997,-1.43164 c 4.97823,0.79359 0.062,-1.38415 0,0 z m -40.85528,0.88323 c -6.159,4.56627 -7.03025,6.96563 -13.86361,5.72652 1.47733,12.59112 -10.52884,26.3187 1.02691,34.49608 15.13204,0.34451 11.4306,-24.33534 13.82219,-35.03556 -0.25521,-0.4203 0.65728,-6.75303 -0.98549,-5.18704 z m -1.34472,1.78695 c -1.91591,3.19613 -1.27584,-2.97516 0,0 z m -17.03402,4.56013 c 4.11485,3.9002 1.45885,16.13456 2.52323,3.5936 2.56284,-4.04798 -4.54976,-4.91562 -2.52323,-3.5936 z m -4.56598,1.43987 c 0.97339,3.7936 1.59011,-3.98028 0,0 z m -23.46814,4.18665 c 1.79203,3.58821 4.94423,3.05004 0,0 z m 20.20759,3.21335 c -4.96553,5.94836 7.20976,-7.10642 0,0 z m -22.81546,0.4 c -4.00136,5.00929 6.41422,-6.06848 0,0 z m -11.90256,15.49286 c -3.10118,10.05369 7.00433,-4.59052 0,0 z m 0.74221,5.47078 c -6.09735,11.59203 10.78127,8.06568 5.13766,-1.6809 -1.84778,-0.75505 -3.85788,0.40089 -5.13766,1.6809 z m 38.44286,-1.17415 c -10.06289,0.75034 -14.68565,8.16741 -10.93834,13.30808 0.58047,-7.8628 -10.82485,-14.51351 -12.5144,-4.20414 6.18641,12.4581 26.2612,2.875 35.95724,-1.37876 -3.99062,-0.56667 -9.36302,-7.1902 -12.5045,-7.72518 z m -11.0065,2.14033 c 4.97823,0.79359 0.062,-1.38415 0,0 z m -20.4384,2.09816 c -8.93473,8.69136 13.82969,14.65882 7.34896,2.95108 2.04387,-4.03561 -5.60029,-5.84974 -7.34896,-2.95108 z m 13.6384,-1.27652 c 6.85974,0.77832 0.29456,-1.2883 0,0 z"
       style="fill:#956a3b" /><path
       inkscape:connector-curvature="0"
       id="path5857"
       d="m 586.91882,207.77939 c 4.61629,0.50449 -1.51749,-1.4093 0,0 z m 21.6,0 c 4.61629,0.50449 -1.51749,-1.4093 0,0 z m -71.05,1.85351 c 1.9159,3.19612 1.27586,-2.97515 0,0 z m 40.8,0 c 1.91591,3.19613 1.27584,-2.97516 0,0 z m -6.25966,2.807 c 4.45542,2.46221 3.87812,-0.76491 0,0 l 0,0 z m -77.74034,2.793 c -2.29125,2.89328 4.44674,-2.62029 0,0 z m 78.44395,0 c -1.71671,4.42624 2.02412,6.33595 0,0 z m -72.84395,1.10205 c 4.82184,5.76712 1.53816,-0.53712 0,0 z m 119.89795,5.09795 c -2.26969,3.56524 4.5498,-4.57445 0,0 z m -105.05184,4.12539 c 2.03082,1.59246 3.7277,-2.402 0,0 z m 9.75389,0.60443 c 4.97823,0.7936 0.062,-1.38417 0,0 z m 11.2,0 c 4.97823,0.7936 0.062,-1.38417 0,0 z m 46.8,0.053 c 9.51115,0.55324 5.88619,-0.91713 -0.69141,-0.12185 l 0.69141,0.12185 z m -67.05335,6.89196 c 0.76663,5.46828 -2.02269,10.69169 0.55967,10.28168 0.65063,-1.57975 1.13651,-17.92524 -0.55967,-10.28168 z m 94.05335,9.3824 c 3.71523,13.80792 1.61494,-8.64946 0,0 z m -57.47369,-0.0571 c 0.59985,4.42279 0.59985,-4.42279 0,0 z m -0.8,8 c 0.59985,4.42279 0.59985,-4.42279 0,0 z m 21.66299,3.2 c 1.41979,13.06151 1.54769,-1.14566 0,0 z m -56.0965,2.13457 c -2.57227,7.09049 2.02912,1.24251 0,0 z m 36.40603,2.29636 c -2.08332,7.22682 2.82501,-3.96243 0,0 z m 55.65713,2.36907 c 0.58699,4.65212 0.34728,-5.01296 0,0 z m -56.8928,2.46666 c 0.73911,2.99421 0.34195,-3.47609 0,0 z m 57.66315,3.53334 c 0.59985,4.42279 0.59985,-4.42279 0,0 z m -93.32631,0 c 1.07575,2.98899 3.35785,-2.86653 0,0 z m 36.55596,6 c 0.58688,4.65208 0.34758,-5.01284 0,0 z m 55.24578,2.4 c 0.52691,6.06816 0.32264,-6.84581 0,0 z m -91.00174,-1.2 c -0.0671,3.06508 3.65863,-3.22831 0,0 z m 54.80669,1.58775 c -2.28275,4.85767 5.10017,0.62262 0,0 z m -53.15526,4.57775 c -0.51201,3.159 2.30761,-3.4091 0,0 z m 34.81173,0.70116 c 0.73911,2.99421 0.34195,-3.47609 0,0 z m 1.53684,3.98056 c 1.7869,3.18227 0.89211,-3.88667 0,0 z m -35.6,1.15278 c 2.45315,2.57214 0.25279,-2.75659 0,0 z m 87.66316,2.69795 c 1.93134,4.96276 2.2837,-4.61221 0,0 z m -36.06316,0.85483 c 1.8998,5.48079 1.86914,-4.02414 0,0 z m -51.2,1.29444 c 1.62644,1.7557 1.81124,-2.67702 0,0 z m 35.5671,1.606 c -1.06085,3.68559 4.68482,-2.94536 0,0 z m 50.8329,6.65236 c 1.6766,5.43973 2.04272,-2.76871 0,0 z m -36.2399,0.76568 c 1.1152,3.43932 2.74196,-2.4087 0,0 z m -48.1601,0.52874 c 0.21114,2.93386 2.40128,-2.69503 0,0 z m 35.25143,2.9655 c -0.512,3.159 2.30761,-3.4091 0,0 z m -35.06476,1.13377 c 4.67139,2.5821 -2.12468,-2.75135 0,0 z m 83.53964,3.10073 c 0.59985,4.42279 0.59985,-4.42279 0,0 z m -36.05116,0.30945 c -1.87522,5.22314 4.32482,-2.98024 0,0 z m -12.07515,0.49055 c 1.91591,3.19613 1.27584,-2.97516 0,0 z m 0.8,4.8 c 1.91591,3.19613 1.27584,-2.97516 0,0 z m 46.4,3.2 c 2.70846,7.0615 0.0447,-6.57583 0,0 z m -36.4,4.8 c 0.21113,2.93386 2.40131,-2.69503 0,0 z m -7.75847,2.48294 c 2.0072,7.24077 0.58254,-6.78732 0,0 z m 43.35847,0.71706 c 2.15401,3.22399 1.88532,-3.11471 0,0 z m -40.4,2.46705 c -6.3936,2.25078 12.77308,-1.50743 0,0 z m 39.6,3.93295 c 1.91591,3.19613 1.27584,-2.97516 0,0 z m -74.79194,5.61305 c 3.15577,1.79256 1.63959,-2.97468 0,0 z m 73.99194,0.78695 c 1.42941,4.56759 1.37235,-4.39089 0,0 z m -45.389,-0.22594 c 7.08916,0.67261 2.60825,-1.18522 0,2e-5 l 0,-2e-5 z m 10.4,0 c 7.08916,0.67261 2.60825,-1.18522 0,2e-5 l 0,-2e-5 z m -19.77986,1.86248 c -7.81787,1.4175 -24.84538,3.49112 -20.40553,12.00169 15.81776,-10.18148 35.58034,-6.17796 53.34128,-6.17593 7.30601,-1.39675 23.38072,8.76302 25.04884,3.5512 -10.37336,-10.06816 -26.17041,-8.38012 -39.66132,-9.79568 -6.10249,-0.13107 -12.25164,-0.3432 -18.32327,0.41872 z m -5.63114,7.24364 c -13.63635,0.0953 -14.46768,12.18333 -12.70265,23.27719 2.74468,17.81783 14.07175,32.60308 18.66177,49.89216 2.52986,8.49429 5.60799,8.46636 7.77231,7.78765 2.4825,6.16819 0.1003,-7.33625 4.03447,0.4128 -0.87188,-7.40829 4.27408,4.00865 3.95371,-5.19167 0.56237,9.49391 3.81301,-3.8302 4.21242,5.30521 5.45052,-10.51759 21.43808,6.03775 28.75376,6.64559 0.79936,-3.08431 -6.33066,-8.61059 0.10085,-4.22236 -13.76711,-9.09464 1.35826,-24.59352 8.27274,-33.18725 3.50616,-5.33891 4.16714,-18.14013 5.23899,-27.48674 4.8593,-14.30308 -5.92601,-19.60091 -18.54065,-21.38893 -16.21832,-3.41457 -33.31778,-3.1623 -49.75772,-1.84365 z m -22.7618,15.07928 c -5.80387,1.71611 -11.11859,10.26968 -14.98424,13.05795 -4.83372,9.82418 -10.19723,13.35531 -1.46176,23.39248 10.71988,13.76926 25.73166,23.96692 41.50211,31.09789 -1.25623,-7.25855 -8.38864,-18.56469 -13.39126,-26.45697 -3.01478,-3.79531 -13.86639,-5.59714 -3.09611,-8.64895 -2.31279,-9.41453 -4.88558,-26.16331 -8.56874,-32.4424 z m -5.18677,2.20604 c -0.51201,3.159 2.30761,-3.4091 0,0 z m 97.35031,3.0345 c 0.52691,6.06816 0.32264,-6.84581 0,0 z m -88.07542,5.2 c 0.59983,4.42277 0.59983,-4.42277 0,0 z m 87.07368,4.8 c 1.91591,3.19613 1.27584,-2.97516 0,0 z m -2,12 c 0.21113,2.93386 2.40131,-2.69503 0,0 z m -111.01503,2.46413 c 2.0609,3.76401 -0.44863,-4.26877 0,0 z m 128.52212,0.28952 c -6.22105,1.09914 -12.99531,4.86419 -19.33502,7.22352 -6.78708,5.23321 -21.92924,23.46913 -10.51042,28.05473 8.20755,2.39893 26.70485,-0.1517 24.67882,-9.2319 4.08486,5.60799 -4.61098,23.78938 -2.04469,21 -0.70751,0.78826 4.89662,4.25958 8.69197,-1.24096 9.72959,-9.03497 28.52373,11.7805 26.04375,-7.89283 -0.0453,-9.26114 -1.25263,-25.75796 -6.67464,-29.60051 1.7569,-4.63163 -7.35399,-5.17457 -8.83006,-7.38094 -5.3013,2.17279 -6.51022,-5.01849 -12.01971,-0.93111 z m 5.50813,0.1711 c -11.22566,0.45979 2.00701,-1.01739 0,0 z m -135.81522,2.67525 c 0.21114,2.93386 2.40128,-2.69503 0,0 z m 114,0.75278 c 1.71499,4.29107 1.15205,-2.76818 0,0 z m -78,2.44722 c 0.21114,2.93386 2.40128,-2.69503 0,0 z m -33.54857,4.5655 c -0.51201,3.159 2.30761,-3.4091 0,0 z m 3.01524,4.6345 c 6.48155,8.56608 0.2506,-5.49004 0,0 z m 4.93333,4.4 c -2.4182,4.47229 5.42643,-0.31824 0,0 z m 4.8824,4.66666 c 1.10728,2.5427 2.16672,-2.11883 0,0 z m 3.2,2.4 c 1.10728,2.5427 2.16672,-2.11883 0,0 z m 101.9176,8.86791 c -4.39738,8.4975 4.15887,-2.21268 0,0 z m -2.8,0.86543 c 2.45317,2.57215 0.25277,-2.7566 0,0 z m -82.4329,0.85322 c -0.80759,4.17954 2.52944,-3.10985 0,0 z m 81.2329,0.77188 c 2.34847,2.67429 3.70733,-1.52133 0,0 z m -8,1.08931 c 3.40644,2.90106 1.93426,-1.44951 0,0 z m 13.6,0 c 2.65408,2.81223 3.56298,-1.50666 0,0 z m -70.13334,1.55225 c 2.72996,4.48815 0.63674,-3.96046 0,0 z m 59.73334,-0.26666 c 3.458,2.81619 4.40285,-1.50483 0,0 z m -9.0989,0.63642 c 3.3909,2.52145 6.79202,-2.7675 0,0 z m -56.06694,0.9083 c -0.0462,3.96723 2.28796,-2.50929 0,0 z m 111.56584,0.1025 c 1.62644,1.7557 1.81124,-2.67702 0,0 z m -55.6329,1.606 c -1.47563,3.76384 4.0945,-3.33485 0,0 z m 34.4329,1.46578 c -10.71242,-0.65944 -15.97225,17.85129 -7.6,8.97527 7.9393,-4.2486 16.23074,-6.51014 23.28812,-2.46564 5.91058,6.99949 -2.6186,-11.49325 -10.60156,-6.86697 l -1.87839,-0.0347 -3.20817,0.392 0,0 z m -14.8,6.12822 c 1.7869,3.18227 0.89211,-3.88667 0,0 z m -23.2,0.30556 c 1.71499,4.29107 1.15205,-2.76818 0,0 z m 0.65,3.79371 c 4.61629,0.50449 -1.51748,-1.4093 0,0 z m -0.91666,3.98685 c -0.95998,9.20037 2.9721,4.27258 0,0 z m 25.71666,0.81315 c 4.61629,0.50449 -1.51748,-1.4093 0,0 z m -2.5393,2.25351 c -0.46466,4.35245 3.81638,-4.35003 0,0 z m 47.55246,0.0666 c 0.73911,2.99421 0.34195,-3.4761 0,0 z m 1.6,0.8 c 0.73911,2.99421 0.34195,-3.4761 0,0 z m -67.55096,3.92943 c 0.76626,7.35331 4.03304,-4.74346 0,0 z m 16.73391,-0.4707 c 2.03083,1.59244 3.72771,-2.40199 0,0 z m -64.44611,0.37668 c 3.8428,5.34504 1.80019,-1.59368 0,0 z m 118,0.49795 c 2.45317,2.57215 0.25277,-2.7566 0,0 z m -66.73609,2.6 c -2.53456,4.96122 7.56685,-5.26712 0,0 z m 10.29012,-0.11411 c -1.02374,8.41826 3.67136,-5.1981 -6e-5,0 l 6e-5,0 z m -57.95403,0.71411 c 0.21113,2.93386 2.40131,-2.69503 0,0 z m 111.3107,1.2 c 0.2681,4.39434 2.37011,-4.14481 0,0 z m -122.1107,2 c 3.74698,3.51584 1.54788,-3.24734 0,0 z m 22.6,0.55146 c 6.85974,0.77832 0.29456,-1.2883 0,0 z m 92.61225,-0.10436 c 2.02414,6.04921 2.71551,0.7146 0,0 z m -65.54909,1.61957 c 0.73911,2.9942 0.34194,-3.47611 0,0 z m 18.33684,-0.46667 c 2.15401,3.22399 1.88532,-3.11471 0,0 z m -8,0.84721 c 1.62642,1.75573 1.81127,-2.67701 0,0 z m 27.2,1.4672 c 2.55241,3.64778 2.46486,-0.88053 0,0 z m 16.73945,1.17022 c 7.39091,6.54912 -4.62921,-6.21717 0,0 z m -31.53945,0.51537 c 2.45317,2.57215 0.25277,-2.7566 0,0 z m -11.15398,1 c -2.43461,10.41528 2.33179,-0.0788 0,0 z m 29.60541,1.6345 c 3.02281,3.98442 -1.01329,-3.65952 0,0 z m 30.01173,0.23217 c 0.73911,2.9942 0.34194,-3.47611 0,0 z m -127.66316,1.13333 c 6.01637,5.8215 -4.14658,-5.69907 0,0 z m 22.8,0.30204 c 4.82171,5.76694 1.53826,-0.537 0,0 z m 31.05,1.04445 c 4.61629,0.50444 -1.51747,-1.40953 0,0 z m 56.95,-0.3424 c 2.06358,3.55231 5.38362,0.49603 0,0 z m 8.86316,1.86258 c 0.73911,2.9942 0.34194,-3.47611 0,0 z m -68.29496,1.13333 c 0.54022,6.00013 1.83832,-5.78346 0,0 z m 63.69846,-0.43519 c 1.59281,2.88724 1.11506,-3.54241 0,0 z m -96.26666,0.74193 c 5.15781,2.44726 4.01233,-1.41256 0,0 z m 81.38666,0.59253 c 4.6714,2.5821 -2.12464,-2.75134 0,0 z m -67.13666,3.64722 c 4.61629,0.50444 -1.51747,-1.40953 0,0 z m 70.91884,1.01908 c 5.52926,4.96696 -2.86962,-4.72122 0,0 z m -44.24253,0.83443 c 0.59985,4.42279 0.59985,-4.42279 0,0 z m -55.31436,2.36307 c -4.05587,3.63217 1.95166,0.73757 2.25686,-1.46099 l -2.25686,1.46099 z m 35.18805,-1.26103 c 4.82171,5.76694 1.53826,-0.537 0,0 z m -22,3.69796 c 2.45317,2.57215 0.25277,-2.7566 0,0 z m 2.8,1.6 c 2.15401,3.22399 1.88532,-3.11471 0,0 z m 47.26316,7.66667 c 0.73911,2.9942 0.34194,-3.47611 0,0 z m -65.66316,1.43537 c 4.82178,5.76703 1.53821,-0.53703 0,0 z m 6.98666,2.99723 c 4.6714,2.5821 -2.12464,-2.75134 0,0 z m 3.81334,-0.0993 c 0.21113,2.93386 2.40131,-2.69503 0,0 z m 22.4,0 c 0.21113,2.93386 2.40131,-2.69503 0,0 z m -30.4,0.8 c 2.45315,2.57214 0.25279,-2.75659 0,0 z m 46.86316,2.06667 c 0.73911,2.9942 0.34194,-3.47611 0,0 z m 13.53684,7.48612 c 1.715,4.29106 1.15203,-2.76821 0,0 z m -58.8,0.84721 c -0.0478,2.84174 3.66829,-2.99525 0,0 z m 41.78497,4.06413 c 2.0609,3.764 -0.44864,-4.26877 0,0 z m -44.40164,2.48587 c 3.57252,4.35718 0.61753,-3.30723 0,0 z m 10.15546,1.65 c -2.25115,5.36401 3.4421,0.30068 0,0 z m 18.11264,5.9655 c -0.51201,3.159 2.30761,-3.4091 0,0 z m -21.39183,1.29516 c -0.07,5.4373 1.63524,-4.78943 0,0 z m 22.5404,2.44138 c 4.82171,5.76694 1.53826,-0.537 0,0 z m 14.85143,1.53246 c 3.02281,3.98442 -1.01329,-3.65952 0,0 z m -7.04645,1.09699 c 1.77964,4.64629 0.92087,-2.35632 0,0 z m -5.80498,1.06851 c 1.21326,3.04692 2.44285,-2.53305 0,0 z m -13.6,0.8 c -0.0671,3.06508 3.6586,-3.2283 0,0 z"
       style="fill:#538839" /><path
       inkscape:connector-curvature="0"
       id="path5855"
       d="m 464.66882,369.6329 c -26.88244,122.64932 78.49218,240.80995 199.69355,161.26172 16.43428,-17.83527 16.24627,-43.93182 18.23185,-66.69245 1.99341,-57.77367 1.46343,-115.62323 0.63874,-173.41751 -1.62576,-25.95233 -0.37349,-54.15337 -14.38907,-77.15048 -53.12078,-41.75647 -186.89764,-16.01528 -196.82671,16.83905 -8.80724,35.91151 -6.50841,73.32615 -7.32631,109.99951 -0.0182,9.95725 -0.0217,20.20315 -0.0221,29.16016 z m 49.6,-163.2749 c -3.38433,1.72918 -4.80762,-2.69347 0,0 z m 57.6,1.76049 c -3.14324,3.17781 -2.99946,-4.43519 0,0 z m 39.6,-0.90061 c -9.45578,1.66191 -25.50923,-3.85084 -31.4007,6.04821 0.2562,-4.9775 -10.34643,-1.57554 -0.41533,-4.07567 5.66605,-2.15508 21.10972,-3.66235 31.81603,-1.97254 z m -94.57079,1.4038 c -8.1302,0.51947 -13.69344,-0.61332 -1.54144,-0.26805 -0.91149,-0.19908 4.67418,0.19407 1.54144,0.26805 z m 99.55413,-0.10544 c -3.94673,1.3664 -0.57146,-1.64622 0,0 z m 9.81666,0.31666 c -2.15401,3.22399 -1.88532,-3.11471 0,0 z m -125.2,0.55352 c -6.12114,1.68951 -12.67274,5.55658 -3.46249,-0.14187 -1.76385,0.0304 6.26829,-0.77576 3.46249,0.14187 z m 30.4257,0.60566 c 8.99506,-1.55428 27.50523,0.3206 19.8831,14.96035 1.40378,4.86755 1.21651,26.34331 0.62372,9.89793 -1.41742,-9.857 1.55342,-30.77497 -14.67938,-22.40224 -0.29801,1.35227 -22.14824,-5.72985 -8.79309,-3.24637 l 2.96565,0.79002 z m 91.5743,0.44082 c 6.80093,4.65858 -12.64379,-5.10308 0,0 z m -125.0075,3.02094 c 0.8137,6.37252 22.85497,10.71416 16.8075,11.7454 -6.01586,-0.21875 -24.88159,-10.39221 -17.63577,-13.13005 z m 75.00434,-0.021 c -0.35432,0.61369 4.35101,-2.83592 2.61824,5.20028 -0.62241,8.41029 -3.10751,20.94274 -2.39517,32.59972 -0.24876,6.50204 -0.15967,23.38194 0.43666,7.58753 1.62285,-13.29793 -6.18383,-40.04826 17.05417,-32.7703 8.79818,-0.2791 23.09195,3.8038 19.91345,12.28999 -5.33006,-12.50356 9.55895,-14.27646 14.75148,-23.42723 -5.6421,10.17128 -19.13988,13.26654 -13.90254,27.42219 -0.19937,6.78113 -1.14799,28.17442 -1.33198,9.46923 -0.81801,-4.5837 -1.19933,15.27775 -1.66307,20.42641 -0.7423,10.17132 -0.36949,14.16409 0.44083,12.71998 -0.10451,4.91356 -1.24437,30.61053 -2.19638,15.98222 -1.72982,9.88836 0.0177,27.14367 -2.5282,28.7 -3.47713,8.2776 4.86614,20.44323 7.24819,31.01561 1.7403,6.48426 -2.59267,32.62247 -1.04689,12.81189 0.27479,-5.76553 0.56339,-17.9796 -0.17083,-5.0275 -0.71186,15.31832 -4.18663,31.18494 -16.12909,41.70459 -9.68209,7.47915 5.50197,21.02779 0.16328,24.23501 -6.44007,-9.74091 -24.35292,-9.78927 -27.49697,-10.0094 1.01859,-2.95443 -4.30364,6.07962 -3.24245,-2.47184 0.32725,9.20082 -4.83809,-2.21688 -3.94218,5.19173 -4.78867,-6.57452 0.41687,5.68412 -5.66935,-1.22962 -8.67563,15.49671 -13.52334,-12.36185 -18.12705,-18.92988 -2.64199,-5.68955 -2.85284,-11.14612 -4.87263,-6.10212 -12.86569,-7.5033 2.16093,-6.47201 0.0293,-6.83838 -5.46667,-13.06025 -15.4852,-35.05208 0.32756,-44.39766 15.68057,-7.5535 33.90429,-4.40279 50.66077,-3.77 9.58888,0.79803 22.16995,4.86236 27.97433,9.44411 -4.18,-3.58179 -6.60209,-21.41471 -8.86185,-12.30104 -21.25275,-7.40744 -45.32763,-8.7326 -66.93216,-2.08855 -6.8282,3.33621 -2.85109,-9.29921 -5.29503,1.66478 -8.06093,11.83543 3.78983,-7.10346 -1.2486,-12.68827 -2.13645,-5.10812 -1.89962,-18.13103 -4.74192,-20.21133 -1.09215,-5.32043 -2.06642,-27.5165 -1.68934,-11.20207 -3.18583,-5.79645 -0.6455,-23.46878 -2.91657,-22 -2.0933,1.95458 -1.71007,-16.64168 -1.87279,-22.76887 0.12368,-9.70705 -0.56175,-5.96767 -1.01642,0.86887 -1.63993,-12.85969 4.45798,-31.0149 -13.98553,-32.67029 -6.78521,-3.13838 -10.66721,-10.31037 -2.16755,-2.20702 12.54844,7.86636 18.65252,9.18959 32.2274,6.40252 12.22415,-2.26301 23.56475,3.53038 19.86651,17.36022 1.01992,21.32793 2.5015,42.81904 6.76763,63.75044 -1.14838,-18.54197 1.71933,4.70036 1.77867,8.46413 -0.38135,2.60092 2.31514,7.43479 4.44623,9.5764 -7.81022,0.49807 -16.21923,4.02874 -3.25904,1.57422 13.29987,-0.85406 5.23526,-13.92747 8.53346,-23.91211 1.29413,-9.3041 2.4755,-9.59602 1.93756,-21.7187 0.32429,-18.70551 0.45726,-37.47756 2.10875,-56.1065 -3.81467,-0.68955 -1.29292,-19.44237 -0.58292,-11.61339 z m -0.70555,5.80002 c 4.12839,12.08566 -0.89546,-7.48185 0,0 z m -57.13533,19.6 c 0.58688,4.65208 0.34758,-5.01284 0,0 z m 1.67285,23.2 c 0.59224,7.67146 0.35798,-8.44914 0,0 z m 0.77294,8 c 0.5268,6.0682 0.3229,-6.84585 0,0 z m 54.46076,12.8 c 0.52787,10.74012 0.35294,-11.72114 0,0 z m -52.13619,5.2 c 0.59983,4.42277 0.59983,-4.42277 0,0 z m 87.31341,6.4 c 0.45678,8.95786 0.43164,-8.97824 0,0 z m -36.82184,8.8 c 0.47074,7.33869 0.44988,-7.35468 0,0 z m -48.09157,-0.8 c 0.59983,4.42277 0.59983,-4.42277 0,0 z m 0.8,4 c 0.59983,4.42277 0.59983,-4.42277 0,0 z m 35.19999,4 c 0.59985,4.42279 0.59985,-4.42279 0,0 z m 11.2,0.8 c 0.59985,4.42279 0.59985,-4.42279 0,0 z m -44.06315,7.66666 c 0.73922,2.99422 0.34168,-3.4761 0,0 z m 79.33858,1.53334 c 0.52691,6.06816 0.32264,-6.84581 0,0 z m -78.47542,2 c 0.59983,4.42277 0.59983,-4.42277 0,0 z m 2.4,11.2 c 0.59983,4.42277 0.59983,-4.42277 0,0 z m -2.02643,61.02803 c -0.5534,9.24785 7.53253,-2.70735 0,0 z m 97.10011,-172.22803 c -1.19434,2.52816 -1.80548,-2.74759 0,0 z m -53.10714,16.65 c -4.54671,1.4308 3.30056,-5.82478 0,0 z m -57.72702,5.69472 c -0.20222,4.27238 -2.7482,-2.5616 0,0 z m 41.02746,19.65528 c -0.37634,11.55535 -1.91071,-18.5002 -0.89201,-16.84375 0.50921,5.6003 0.87541,11.21838 0.89201,16.84375 z m 55.98948,9 c -1.03527,-1.73373 0.54175,-12.47556 0,0 z m -55.21697,1.99067 c -1.185,0.83894 0.51978,-8.41904 0,0 z m 2.47373,19.40933 c -1.93326,-1.13298 -2.63794,-26.61317 -0.64256,-6.85969 0.2542,2.28116 0.58156,4.56166 0.64256,6.85969 z m -38.48515,-11.81522 c -1.31199,1.13586 0.68912,-6.83163 0,0 z m 92.24561,12.21522 c -1.19434,2.52816 -1.80548,-2.74759 0,0 z m -4.23419,18.59067 c -1.185,0.83894 0.51978,-8.41904 0,0 z m -82.43599,1.60933 c -1.38777,0.25865 0.83987,-5.34549 0,0 z m 84.02457,4.38478 c -1.31199,1.13585 0.68913,-6.83165 0,0 z m -42.47136,1.21256 c -2.18663,8.37374 -3.25859,-10.17821 0,0 z m 1.64679,4.00266 c -1.3878,0.25866 0.8399,-5.34549 0,0 z m -42.12982,6.68559 c -3.75795,8.95548 -3.00669,-10.4629 0,0 z m 59.46279,7.86155 c 5.5774,0.0925 25.49118,6.88818 18.54912,9.96624 -19.93463,-7.1275 -41.579,-6.56252 -62.36444,-4.86695 -5.92081,0.60958 -22.45968,11.39619 -11.68373,-0.44518 16.87865,-9.06233 37.21676,-6.41012 55.49905,-4.65411 z m 28.40387,6.11602 c 2.0347,5.223 -5.46846,6.94682 -2.53628,-1.06316 l 0.91165,0.7248 1.62519,0.33836 z m -88.9152,6.93684 c -1.25582,0.18606 0.73367,-7.24219 0,0 z m -4.55146,3 c -3.23102,4.83598 -2.82799,-4.67207 0,0 z m 3.54831,0.64622 c -3.74222,4.98222 -17.88647,11.75022 -5.43434,3.62815 2.40935,0.66653 6.15836,-8.82079 5.43434,-3.62815 z m -1.69175,9.95378 c -0.68534,10.95916 11.0925,24.6345 1.35982,30.98988 14.5715,4.74323 14.51125,22.56287 23.1466,33.14015 2.99244,5.87444 3.5649,12.04546 4.16764,1.5997 2.41803,-16.74858 14.10857,15.68523 7.72485,-0.18634 0.42207,-10.69787 13.60457,4.53639 11.85285,-7.38589 12.04449,-2.1971 27.26114,14.97631 26.08771,17.96125 -4.63171,-14.32918 15.41627,-10.64492 18.04971,-13.88825 -8.5382,1.89229 -26.75199,3.67118 -21.57901,-12.39767 4.74303,-13.35209 20.01945,-21.27299 31.51329,-24.76479 -5.04073,0.84611 -19.55946,6.3233 -6.80468,0.71192 12.06149,-4.33039 29.84867,-2.39816 33.80994,12.02294 3.84497,11.4039 0.66514,4.40201 -2.07206,-2.60602 0.31408,-8.67023 -24.70043,-12.39904 -9.02709,-7.9236 13.70707,8.47617 15.89426,30.31418 11.04291,44.57058 -9.88923,-5.08272 -22.00655,-4.70532 -30.68688,2.75614 -4.4547,11.93043 10.81279,-0.76538 1.31419,6.24468 -4.39283,-9.19103 19.8662,-16.42133 27.24207,-7.57331 1.81882,6.38254 -17.85818,-4.56662 -18.80936,4.42852 6.55285,-9.82916 23.39799,4.39299 22.17458,2.93647 -3.62807,-6.42943 6.31529,6.39044 8.82639,4.10344 13.83212,-0.754 6.44057,17.00205 3.20997,12.22727 -1.42521,-4.03377 -6.48307,6.5182 0.47783,7.83293 4.81138,-1.25641 -3.37328,15.56866 -10.41218,5.34925 4.17973,0.0248 -7.80129,-8.93679 -2.69207,-0.39815 0.32897,5.45854 -10.35512,13.78063 -1.03706,6.85267 6.54351,-15.57524 -1.25621,12.78004 -10.26569,0.44841 2.26626,-0.39747 2.08611,-0.58089 -2.49152,-5.47362 1.30189,-10.66109 -26.00321,-7.50712 -28.08999,-11.77852 -2.28217,0.89276 -5.11176,-4.56114 -3.7098,4.66166 -2.45713,-6.02617 1.93774,13.62781 -6.09244,1.55307 -10.56876,3.81779 -9.11631,-25.11834 1.38075,-10.93468 5.34143,10.79842 2.43331,-7.26613 -4.49419,-4.12151 -8.43093,1.40359 -0.80319,-18.70909 -5.25098,-5.85147 1.26455,10.18685 -2.34105,24.78867 11.00625,23.95434 9.34194,7.01102 -9.55653,19.12311 -4.57375,8.28746 2.22896,-3.80627 -9.34675,-11.13916 -9.65055,-5.34884 13.32701,-8.17939 5.43435,23.31675 0.88773,6.4 -0.5645,-9.77088 1.4886,12.32733 -7.86787,6.20824 -5.20627,10.03436 10.16127,-7.4553 7.20439,5.89421 2.83384,16.33873 -8.30489,29.47164 -25.05756,27.17953 -11.71995,2.33018 -15.64982,-9.31437 -20.47128,-16.17659 9.13565,4.75929 -5.90731,21.19593 -0.1347,8.72559 3.01233,-1.67328 -2.07135,-9.40056 -0.10035,-13.73868 5.26718,2.15042 -7.86886,-6.7218 -4.04948,-11.11073 -3.54018,11.94648 0.82281,-14.43352 8.88972,-3.13957 -2.28975,-7.99141 -26.84321,-21.43007 -7.6122,-23.82764 10.28186,1.11881 27.43396,-2.40654 33.97968,3.28932 -6.74761,11.28234 -23.38177,14.42571 -34.24805,8.45455 -6.26593,-3.81217 -7.41195,-16.593 -4.87497,-3.69095 8.43351,11.85447 28.31202,8.79552 37.47568,-0.88962 9.36435,1.50528 15.93318,-6.39639 6.14707,-12.9047 -12.8029,-6.32922 10.52637,6.64509 -2.92504,2.58078 -6.27047,0.0493 -12.02441,-4.92275 -6.83771,-5.23578 -7.2318,-0.002 -11.9033,-0.9665 -7.37469,5.98488 -5.6645,1.70115 -20.45291,2.92022 -6.44458,-0.72466 -1.17591,-3.19975 -3.5478,-14.10265 -3.15106,-4.52388 5.14432,10.60622 -6.88622,-9.59861 5.26064,-5.82614 2.26963,0.94496 -5.74153,-4.37427 -0.59248,-8.46957 -4.14455,2.41546 -7.19595,-2.90977 -2.70553,2.94141 -6.46785,-13.95181 -23.93261,-14.35571 -35.3493,-23.72109 -9.08197,-3.18446 -18.20683,-18.21098 -23.04492,-19.73241 -7.49352,4.84241 2.92381,-6.41683 0.96541,-10.93027 -0.91845,17.25159 16.81722,26.20518 29.28034,34.11282 5.3414,4.49827 30.63685,12.86506 12.55883,5.44721 -15.09351,-7.23448 -31.69542,-15.73915 -39.98577,-30.92871 -2.73169,-12.26759 -0.17124,-17.98562 7.99423,-29.72117 12.48846,-15.33761 -15.9796,25.03545 -3.39687,7.72851 2.31773,-3.86581 20.03431,-27.36911 18.93264,-11.65496 z m 107.15866,24.75439 c 6.83165,0.68905 -1.136,-1.31212 0,0 z m -8.70257,27.24561 c -1.62133,6.35611 -1.11504,11.36802 -0.5293,15.13438 1.7428,-1.03376 2.08042,-21.75181 0.5293,-15.13438 z m -2.64949,15.86666 c 0.73911,2.99421 0.34195,-3.47609 0,0 z m -51.56433,1.56427 c -1.58913,5.68399 2.27206,-3.62782 0,0 z m -4.06064,3.76907 c 8.2998,4.3292 1.41015,-2.97236 0,0 z m 11.37114,1.16581 c 9.17069,0.30322 -0.86998,-1.00518 0,0 z m -15.00933,1.03419 c -2.58641,2.46774 7.551,-2.57579 0,0 z m 23.73731,0.72302 c 10.05509,5.28963 8.20208,2.30347 -0.1992,-0.93059 -4.08435,-2.04589 -2.4422,1.02893 0.1992,0.93059 z m 48.26269,9.58855 c 5.2507,7.54025 5.40434,2.86259 0,0 z m 32,0.88843 c 6.24259,2.87038 -2.46667,-2.6801 0,0 z m 5.68031,2.96362 c 4.5867,5.65811 -2.65943,-4.80644 0,0 z m -72.08031,-0.25692 c 4.2078,2.6272 2.98209,-1.41786 0,0 z m 56.37834,3.72834 c 1.3497,5.56947 11.82042,9.98993 1.98441,2.45109 -4.24269,-3.1371 2.19681,-2.21758 -1.98441,-2.45109 z m 15.811,1.37321 c -2.05586,5.40645 3.58489,-4.84173 0,0 z m -12.54934,0.13514 c 13.75874,5.07725 0.23452,-1.38935 0,0 z m -114.62477,4.611 c 6.83166,0.68905 -1.13601,-1.31183 0,0 z m -4.36523,0.7921 c 4.61628,0.50442 -1.51749,-1.40952 0,0 z m 76.15,1.75555 c 2.81707,5.07592 3.75463,0.96502 0,0 z m 32,0.85075 c 0.005,3.67303 3.16812,-2.22564 3.26352,-0.15279 -0.57018,-1.36627 -3.4385,-2.13333 -3.26352,0.15279 z m -94.34648,0.59513 c 0.90646,8.85757 3.30199,3.34906 0,0 z m -5.65352,-0.12425 c 5.97384,11.83292 5.22063,3.78293 0,0 z m 11.89914,3.12891 c -3.35961,10.88585 4.4635,-8.65979 0,0 z m 5.70086,-2.38042 c -6.9971,8.96382 -0.40901,5.11834 0.4,-1.17215 l -0.4,1.17216 z m -22.4,0.0989 c 3.7979,6.4559 9.85637,7.96145 2.19193,1.41046 l -1.13936,-0.94541 z m 26.40817,1.11365 c -8.06306,6.41164 -4.74859,6.546 0.83801,-0.071 l 0.41012,-1.51371 -1.24813,1.58473 0,0 z m 97.30849,5.03194 c -10.10054,0.82432 -1.2164,4.17942 1.88334,-1.21447 z m -95.51666,7.55633 c 8.67092,0.62356 1.90002,-1.11896 0,0 z m 8.2,1.36317 c 5.5791,6.56315 4.18231,2.14895 -1.09605,-0.96163 z m -15.07724,2.06383 c -10.02895,4.38654 1.32481,4.78819 2.41947,-2.4 l -0.87572,0.705 z m -11.11343,2.16581 c 9.17033,0.30335 -0.86968,-1.00498 0,0 z m 22.73201,3.07645 c 2.66496,4.6664 2.25584,-4.45592 0,0 z m -26.02976,0.11282 c -1.97516,4.4129 5.46903,-0.13835 0,0 z m 10.70164,1.64492 c 1.17676,6.30847 14.265,13.0869 3.0786,3.81292 -1.17488,-1.15269 -2.03055,-9.56091 -3.0786,-3.81292 z m -4.81322,7.8 c -5.12228,3.69301 7.66626,-3.79262 0,0 z m 22.4,0 c -5.12228,3.69301 7.66626,-3.79262 0,0 z m -7,1.75146 c 6.85974,0.77832 0.29456,-1.2883 0,0 z m -62.6,-136.55146 c -1.75786,5.29133 -2.45767,-5.42266 0,0 z m 108.8,1.6 c -1.19434,2.52816 -1.80548,-2.74759 0,0 z m -114.4,6.8 c -1.92426,4.46252 -0.87694,-4.23923 0,0 z m 109.37274,11.8 c -3.5206,5.01168 5.40664,8.53978 -3.49149,10.74791 -0.01,-1.71288 4.15989,-18.16933 3.49149,-10.74791 z m 45.21423,13.57143 c -3.97664,4.99922 -1.95334,-5.0586 0,0 z m -154.37542,8.30679 c 0.69973,5.65115 -3.65023,-0.75399 0,0 z m 154.83757,15.92178 c 0.25496,10.4434 -1.44616,7.76594 -1.04912,-0.992 -0.0677,-9.90317 0.94827,-12.54363 1.04912,0.992 z M 522.86,427.19575 c 1.78493,6.23405 -9.49825,-5.84429 0,0 z m 129.78284,11.28562 c 2.65447,0.82548 0.99105,5.95293 -1.72608,1.59858 -0.0441,-1.66014 4.03867,-5.75767 1.72608,-1.59858 z m -100.11613,8.9899 c -2.26266,9.34673 -13.38506,-1.44744 -3.85789,-0.69407 0.42277,-2.06184 3.60622,-0.81367 3.85789,0.69407 z m 1.4886,1.51157 c -1.4095,1.51742 0.50458,-4.61634 0,0 z m -15.74649,10.56441 c -5.70488,11.40731 -6.40092,-1.74337 0,0 z m 12.6,0.18982 c 6.05439,6.39988 -11.9183,-0.54339 0,0 z m -10.2,2.69577 c -2.96496,2.78794 -2.15721,-1.62426 0,0 z m 123.2,6.4 c -1.19434,2.52816 -1.80548,-2.74759 0,0 z m -34.4,2.89443 c -4.32675,4.7481 -3.03218,-4.92489 0,0 z m -22.64854,4.10557 c -1.25582,0.18606 0.73367,-7.24219 0,0 z m 0.83657,14.4 c -0.79813,1.23538 0.0207,-15.36321 0.1236,-3.8 l -0.0309,2.02469 z m 11.41197,-10.2 c -1.91591,3.19613 -1.27584,-2.97516 0,0 z m 19.2,3.2 c -1.19434,2.52816 -1.80548,-2.74759 0,0 z m -33.05897,11.4 c -2.13569,9.47216 0.67033,35.64021 -14.89149,30.49735 -9.59537,-8.1772 1.75934,-23.20106 0.27289,-34.30262 7.28754,-0.25882 5.38767,1.84306 12.58479,-4.31191 4.56879,-8.16262 1.29682,7.0043 2.03381,8.11718 z m 36.25897,-6.6933 c -3.94644,4.27212 -4.2669,-2.99651 0,0 z m 7.56583,0.83802 c 0.10117,4.45113 -3.53874,-3.35511 0,0 z m -42.20002,11.44595 c -1.185,0.83894 0.51978,-8.41904 0,0 z m -65.10273,2.20933 c -5.39551,-3.11206 -3.34795,-7.73007 0,0 z m 63.25372,9.50324 c 0.80522,6.51878 -10.18726,22.19993 -10.10949,18.50108 8.39778,-5.68698 8.41229,-19.51501 11.23655,-26.50108 0.0204,2.71166 -0.5516,5.3689 -1.12706,8 z m -54.71231,12.49199 c 0.34,10.18492 -7.59673,7.02455 -7.54328,-0.81864 1.09398,-5.06834 11.12263,-4.43622 7.54328,0.81864 z m 35.53973,-2.10311 c 5.267,5.41174 16.03884,5.46275 2.98269,9.59126 -7.19654,8.72636 -28.1622,-2.92799 -14.14818,-8.30771 3.7052,0.3432 9.1293,-6.45898 11.16549,-1.28355 z m -29.2665,1.78513 c 3.85948,3.19049 6.101,15.8752 -3.42945,10.27264 -6.90685,-0.79563 -3.25293,-14.92326 3.42945,-10.27264 z m -11.3907,7.22262 c 12.60657,7.84112 -5.20449,0.27047 -4.3863,-6.6016 1.68048,1.70482 2.35698,4.87211 4.3863,6.6016 z m 23.82022,-3.49987 c -0.99542,10.66236 21.21026,7.21164 5.06953,9.22207 -7.83183,1.50081 -26.58882,-1.24511 -8.07592,-0.59605 -0.5942,3.61571 -13.89479,-11.88138 -1.4229,-11.62602 2.15042,-0.44348 4.75932,0.26948 4.42929,3 z m 19.29276,6.22889 c -10.66213,3.65001 3.79165,-3.3929 0,0 z m -34.21666,1.65444 c -3.94626,1.3659 -0.57164,-1.64573 0,0 z m -0.58334,1.91667 c -4.35013,2.54417 -3.54481,-1.08083 0,0 z m 32.8,-0.44721 c -1.29211,2.60631 -3.36716,-1.71465 0,0 z"
       style="fill:#060705"
       sodipodi:nodetypes="ccccccccccccccccccccccccccccccccccccccccccccccccccccccccccccccccccccccccccccccccccccccccccccccccccccccccccccccccccccccccccccccccccccccccccccccccccccccccccccccccccccccccccccccccccccccccccccccccccccccccccccccccccccccccccccccccccccccccccccccccccccccccccccccccccccccccccccccccccccccccccccccccccccccccccccccccccccccccccccccccccccccccccccccccccccccccccccccccccccccccccccccccccccccccccccccccccccccccccccccccccccccccccccccccccc" /></g></svg>